# Blender v2.92.0 OBJ File: 'meja bersama.blend'
# www.blender.org
mtllib meja bersama.mtl
o Cube.007
v 5.406782 4.870714 -14.524210
v -5.406782 4.870714 -14.524210
v -5.406782 4.870713 -6.311076
v 5.406782 4.870713 -6.311076
v 5.406782 4.448646 -6.311076
v -5.406782 4.448646 -6.311076
v -5.406782 4.448647 -14.524210
v 5.406782 4.448647 -14.524210
vt 0.625000 0.500000
vt 0.875000 0.500000
vt 0.875000 0.750000
vt 0.625000 0.750000
vt 0.375000 0.750000
vt 0.625000 1.000000
vt 0.375000 1.000000
vt 0.375000 0.000000
vt 0.625000 0.000000
vt 0.625000 0.250000
vt 0.375000 0.250000
vt 0.125000 0.500000
vt 0.375000 0.500000
vt 0.125000 0.750000
vn 0.0000 1.0000 0.0000
vn 0.0000 0.0000 1.0000
vn -1.0000 0.0000 0.0000
vn 0.0000 -1.0000 -0.0000
vn 1.0000 0.0000 0.0000
vn 0.0000 0.0000 -1.0000
usemtl Material.007
s 1
f 1/1/1 2/2/1 3/3/1 4/4/1
f 5/5/2 4/4/2 3/6/2 6/7/2
f 6/8/3 3/9/3 2/10/3 7/11/3
f 7/12/4 8/13/4 5/5/4 6/14/4
f 8/13/5 1/1/5 4/4/5 5/5/5
f 7/11/6 2/10/6 1/1/6 8/13/6
o Cube.008
v -5.355511 0.464050 -6.676361
v -5.363972 4.671305 -6.697237
v -5.166633 4.671700 -6.697658
v -5.158172 0.464444 -6.676782
v -5.363173 4.673172 -6.321059
v -5.165833 4.673567 -6.321481
v -5.157372 0.466313 -6.300603
v -5.354712 0.465918 -6.300182
vt 0.625000 0.500000
vt 0.625000 0.750000
vt 0.875000 0.750000
vt 0.875000 0.500000
vt 0.375000 0.750000
vt 0.375000 1.000000
vt 0.625000 1.000000
vt 0.375000 0.000000
vt 0.375000 0.250000
vt 0.625000 0.250000
vt 0.625000 0.000000
vt 0.125000 0.500000
vt 0.125000 0.750000
vt 0.375000 0.500000
vn -0.0021 -0.0050 -1.0000
vn -0.0020 1.0000 -0.0050
vn 1.0000 0.0020 -0.0021
vn 0.0021 0.0050 1.0000
vn -1.0000 -0.0020 0.0021
vn 0.0020 -1.0000 0.0050
usemtl Material.008
s 1
f 9/15/7 10/16/7 11/17/7 12/18/7
f 13/19/8 14/20/8 11/21/8 10/16/8
f 14/22/9 15/23/9 12/24/9 11/25/9
f 15/26/10 14/27/10 13/19/10 16/28/10
f 16/28/11 13/19/11 10/16/11 9/15/11
f 15/23/12 16/28/12 9/15/12 12/24/12
o Cube.009
v -5.292873 0.916624 -14.381854
v -5.292873 0.916622 -6.424603
v -5.078363 0.916622 -6.424603
v -5.078363 0.916624 -14.381854
v -5.292873 0.507705 -6.424603
v -5.078363 0.507705 -6.424603
v -5.078363 0.507707 -14.381855
v -5.292873 0.507707 -14.381855
vt 0.625000 0.500000
vt 0.625000 0.750000
vt 0.875000 0.750000
vt 0.875000 0.500000
vt 0.375000 0.750000
vt 0.375000 1.000000
vt 0.625000 1.000000
vt 0.375000 0.000000
vt 0.375000 0.250000
vt 0.625000 0.250000
vt 0.625000 0.000000
vt 0.125000 0.500000
vt 0.125000 0.750000
vt 0.375000 0.500000
vn 0.0000 1.0000 0.0000
vn 0.0000 0.0000 1.0000
vn 1.0000 0.0000 0.0000
vn 0.0000 -1.0000 -0.0000
vn -1.0000 0.0000 0.0000
vn 0.0000 0.0000 -1.0000
usemtl Material.009
s 1
f 17/29/13 18/30/13 19/31/13 20/32/13
f 21/33/14 22/34/14 19/35/14 18/30/14
f 22/36/15 23/37/15 20/38/15 19/39/15
f 23/40/16 22/41/16 21/33/16 24/42/16
f 24/42/17 21/33/17 18/30/17 17/29/17
f 23/37/18 24/42/18 17/29/18 20/38/18
o Cube.010
v -5.341971 0.464052 -14.458784
v -5.350432 4.671306 -14.479660
v -5.153092 4.671700 -14.480082
v -5.144631 0.464446 -14.459206
v -5.349632 4.673173 -14.103483
v -5.152293 4.673568 -14.103904
v -5.143832 0.466315 -14.083028
v -5.341171 0.465920 -14.082606
vt 0.625000 0.500000
vt 0.625000 0.750000
vt 0.875000 0.750000
vt 0.875000 0.500000
vt 0.375000 0.750000
vt 0.375000 1.000000
vt 0.625000 1.000000
vt 0.375000 0.000000
vt 0.375000 0.250000
vt 0.625000 0.250000
vt 0.625000 0.000000
vt 0.125000 0.500000
vt 0.125000 0.750000
vt 0.375000 0.500000
vn -0.0021 -0.0050 -1.0000
vn -0.0020 1.0000 -0.0050
vn 1.0000 0.0020 -0.0021
vn 0.0021 0.0050 1.0000
vn -1.0000 -0.0020 0.0021
vn 0.0020 -1.0000 0.0050
usemtl Material.010
s 1
f 25/43/19 26/44/19 27/45/19 28/46/19
f 29/47/20 30/48/20 27/49/20 26/44/20
f 30/50/21 31/51/21 28/52/21 27/53/21
f 31/54/22 30/55/22 29/47/22 32/56/22
f 32/56/23 29/47/23 26/44/23 25/43/23
f 31/51/24 32/56/24 25/43/24 28/52/24
o Cube.011
v 5.170940 0.464050 -6.701258
v 5.162479 4.671305 -6.722135
v 5.359819 4.671700 -6.722556
v 5.368280 0.464444 -6.701679
v 5.163279 4.673172 -6.345957
v 5.360619 4.673567 -6.346377
v 5.369080 0.466313 -6.325501
v 5.171740 0.465918 -6.325080
vt 0.625000 0.500000
vt 0.625000 0.750000
vt 0.875000 0.750000
vt 0.875000 0.500000
vt 0.375000 0.750000
vt 0.375000 1.000000
vt 0.625000 1.000000
vt 0.375000 0.000000
vt 0.375000 0.250000
vt 0.625000 0.250000
vt 0.625000 0.000000
vt 0.125000 0.500000
vt 0.125000 0.750000
vt 0.375000 0.500000
vn -0.0021 -0.0050 -1.0000
vn -0.0020 1.0000 -0.0050
vn 1.0000 0.0020 -0.0021
vn 0.0021 0.0050 1.0000
vn -1.0000 -0.0020 0.0021
vn 0.0020 -1.0000 0.0050
usemtl Material.011
s 1
f 33/57/25 34/58/25 35/59/25 36/60/25
f 37/61/26 38/62/26 35/63/26 34/58/26
f 38/64/27 39/65/27 36/66/27 35/67/27
f 39/68/28 38/69/28 37/61/28 40/70/28
f 40/70/29 37/61/29 34/58/29 33/57/29
f 39/65/30 40/70/30 33/57/30 36/66/30
o Cube.012
v 5.220038 0.916624 -14.381854
v 5.220038 0.916622 -6.424603
v 5.434548 0.916622 -6.424603
v 5.434548 0.916624 -14.381854
v 5.220038 0.507705 -6.424603
v 5.434548 0.507705 -6.424603
v 5.434548 0.507707 -14.381855
v 5.220038 0.507707 -14.381855
vt 0.625000 0.500000
vt 0.625000 0.750000
vt 0.875000 0.750000
vt 0.875000 0.500000
vt 0.375000 0.750000
vt 0.375000 1.000000
vt 0.625000 1.000000
vt 0.375000 0.000000
vt 0.375000 0.250000
vt 0.625000 0.250000
vt 0.625000 0.000000
vt 0.125000 0.500000
vt 0.125000 0.750000
vt 0.375000 0.500000
vn 0.0000 1.0000 0.0000
vn 0.0000 0.0000 1.0000
vn 1.0000 0.0000 0.0000
vn 0.0000 -1.0000 -0.0000
vn -1.0000 0.0000 0.0000
vn 0.0000 0.0000 -1.0000
usemtl Material.012
s 1
f 41/71/31 42/72/31 43/73/31 44/74/31
f 45/75/32 46/76/32 43/77/32 42/72/32
f 46/78/33 47/79/33 44/80/33 43/81/33
f 47/82/34 46/83/34 45/75/34 48/84/34
f 48/84/35 45/75/35 42/72/35 41/71/35
f 47/79/36 48/84/36 41/71/36 44/80/36
o Cube.013
v 5.170940 0.464052 -14.458784
v 5.162479 4.671306 -14.479660
v 5.359819 4.671700 -14.480082
v 5.368280 0.464446 -14.459206
v 5.163279 4.673173 -14.103483
v 5.360619 4.673568 -14.103904
v 5.369080 0.466315 -14.083028
v 5.171740 0.465920 -14.082606
vt 0.625000 0.500000
vt 0.625000 0.750000
vt 0.875000 0.750000
vt 0.875000 0.500000
vt 0.375000 0.750000
vt 0.375000 1.000000
vt 0.625000 1.000000
vt 0.375000 0.000000
vt 0.375000 0.250000
vt 0.625000 0.250000
vt 0.625000 0.000000
vt 0.125000 0.500000
vt 0.125000 0.750000
vt 0.375000 0.500000
vn -0.0021 -0.0050 -1.0000
vn -0.0020 1.0000 -0.0050
vn 1.0000 0.0020 -0.0021
vn 0.0021 0.0050 1.0000
vn -1.0000 -0.0020 0.0021
vn 0.0020 -1.0000 0.0050
usemtl Material.013
s 1
f 49/85/37 50/86/37 51/87/37 52/88/37
f 53/89/38 54/90/38 51/91/38 50/86/38
f 54/92/39 55/93/39 52/94/39 51/95/39
f 55/96/40 54/97/40 53/89/40 56/98/40
f 56/98/41 53/89/41 50/86/41 49/85/41
f 55/93/42 56/98/42 49/85/42 52/94/42
o Cube.003_Cube.016
v 0.003670 0.464050 -6.676361
v -0.004791 4.671305 -6.697237
v 0.192548 4.671700 -6.697658
v 0.201009 0.464444 -6.676782
v -0.003992 4.673172 -6.321059
v 0.193348 4.673567 -6.321481
v 0.201809 0.466313 -6.300603
v 0.004469 0.465918 -6.300182
vt 0.625000 0.500000
vt 0.625000 0.750000
vt 0.875000 0.750000
vt 0.875000 0.500000
vt 0.375000 0.750000
vt 0.375000 1.000000
vt 0.625000 1.000000
vt 0.375000 0.000000
vt 0.375000 0.250000
vt 0.625000 0.250000
vt 0.625000 0.000000
vt 0.125000 0.500000
vt 0.125000 0.750000
vt 0.375000 0.500000
vn -0.0021 -0.0050 -1.0000
vn -0.0020 1.0000 -0.0050
vn 1.0000 0.0020 -0.0021
vn 0.0021 0.0050 1.0000
vn -1.0000 -0.0020 0.0021
vn 0.0020 -1.0000 0.0050
usemtl Material.016
s 1
f 57/99/43 58/100/43 59/101/43 60/102/43
f 61/103/44 62/104/44 59/105/44 58/100/44
f 62/106/45 63/107/45 60/108/45 59/109/45
f 63/110/46 62/111/46 61/103/46 64/112/46
f 64/112/47 61/103/47 58/100/47 57/99/47
f 63/107/48 64/112/48 57/99/48 60/108/48
o Cube.002_Cube.015
v 0.066308 0.916624 -14.381854
v 0.066308 0.916622 -6.424603
v 0.280818 0.916622 -6.424603
v 0.280818 0.916624 -14.381854
v 0.066308 0.507705 -6.424603
v 0.280818 0.507705 -6.424603
v 0.280818 0.507707 -14.381855
v 0.066308 0.507707 -14.381855
vt 0.625000 0.500000
vt 0.625000 0.750000
vt 0.875000 0.750000
vt 0.875000 0.500000
vt 0.375000 0.750000
vt 0.375000 1.000000
vt 0.625000 1.000000
vt 0.375000 0.000000
vt 0.375000 0.250000
vt 0.625000 0.250000
vt 0.625000 0.000000
vt 0.125000 0.500000
vt 0.125000 0.750000
vt 0.375000 0.500000
vn 0.0000 1.0000 0.0000
vn 0.0000 0.0000 1.0000
vn 1.0000 0.0000 0.0000
vn 0.0000 -1.0000 -0.0000
vn -1.0000 0.0000 0.0000
vn 0.0000 0.0000 -1.0000
usemtl Material.015
s 1
f 65/113/49 66/114/49 67/115/49 68/116/49
f 69/117/50 70/118/50 67/119/50 66/114/50
f 70/120/51 71/121/51 68/122/51 67/123/51
f 71/124/52 70/125/52 69/117/52 72/126/52
f 72/126/53 69/117/53 66/114/53 65/113/53
f 71/121/54 72/126/54 65/113/54 68/122/54
o Cube.001_Cube.014
v 0.070414 0.464052 -14.458784
v 0.061953 4.671306 -14.479660
v 0.259293 4.671700 -14.480082
v 0.267754 0.464446 -14.459206
v 0.062753 4.673173 -14.103483
v 0.260092 4.673568 -14.103904
v 0.268553 0.466315 -14.083028
v 0.071214 0.465920 -14.082606
vt 0.625000 0.500000
vt 0.625000 0.750000
vt 0.875000 0.750000
vt 0.875000 0.500000
vt 0.375000 0.750000
vt 0.375000 1.000000
vt 0.625000 1.000000
vt 0.375000 0.000000
vt 0.375000 0.250000
vt 0.625000 0.250000
vt 0.625000 0.000000
vt 0.125000 0.500000
vt 0.125000 0.750000
vt 0.375000 0.500000
vn -0.0021 -0.0050 -1.0000
vn -0.0020 1.0000 -0.0050
vn 1.0000 0.0020 -0.0021
vn 0.0021 0.0050 1.0000
vn -1.0000 -0.0020 0.0021
vn 0.0020 -1.0000 0.0050
usemtl Material.014
s 1
f 73/127/55 74/128/55 75/129/55 76/130/55
f 77/131/56 78/132/56 75/133/56 74/128/56
f 78/134/57 79/135/57 76/136/57 75/137/57
f 79/138/58 78/139/58 77/131/58 80/140/58
f 80/140/59 77/131/59 74/128/59 73/127/59
f 79/135/60 80/140/60 73/127/60 76/136/60
