# Blender v2.92.0 OBJ File: 'keybox.blend'
# www.blender.org
mtllib keybox.mtl
o Cube
v -2.088486 1.894511 0.335733
v -2.102338 4.968247 0.335733
v -2.088486 1.894511 1.659615
v -2.102338 4.968247 1.659615
v 0.220210 1.904916 0.335733
v 0.206358 4.978652 0.335733
v 0.220210 1.904916 1.659615
v 0.206358 4.978652 1.659615
vt 0.625000 0.500000
vt 0.875000 0.500000
vt 0.875000 0.750000
vt 0.625000 0.750000
vt 0.375000 0.750000
vt 0.625000 1.000000
vt 0.375000 1.000000
vt 0.375000 0.000000
vt 0.625000 0.000000
vt 0.625000 0.250000
vt 0.375000 0.250000
vt 0.125000 0.500000
vt 0.375000 0.500000
vt 0.125000 0.750000
vn 0.0045 -1.0000 0.0000
vn 0.0000 0.0000 1.0000
vn 1.0000 0.0045 0.0000
vn -0.0045 1.0000 0.0000
vn -1.0000 -0.0045 0.0000
vn 0.0000 0.0000 -1.0000
usemtl kaca
s off
f 1/1/1 5/2/1 7/3/1 3/4/1
f 4/5/2 3/4/2 7/6/2 8/7/2
f 8/8/3 7/9/3 5/10/3 6/11/3
f 6/12/4 2/13/4 4/5/4 8/14/4
f 2/13/5 1/1/5 3/4/5 4/5/5
f 6/11/6 5/10/6 1/1/6 2/13/6
o Cube.001
v -1.577707 4.983414 1.647614
v -1.577707 4.983414 0.343143
v -2.134760 4.980904 1.647614
v -2.132880 4.563636 1.647614
v -2.134760 4.980904 0.343143
v -2.132880 4.563636 0.343143
v -1.577604 4.960464 1.647614
v -1.577604 4.960464 0.343143
v -2.113024 4.964774 1.647614
v -2.102242 4.563774 1.647614
v -2.113024 4.964774 0.343143
v -2.102242 4.563774 0.343143
vt 0.375000 0.500000
vt 0.625000 0.500000
vt 0.625000 0.750000
vt 0.375000 0.750000
vt 0.125000 0.500000
vt 0.125000 0.750000
vt 0.375000 0.500000
vt 0.375000 0.750000
vt 0.625000 0.750000
vt 0.625000 0.500000
vt 0.125000 0.500000
vt 0.125000 0.750000
vn -1.0000 -0.0045 0.0000
vn -0.0045 1.0000 0.0000
vn 0.9996 0.0269 0.0000
vn -0.0080 -1.0000 0.0000
vn 1.0000 0.0045 0.0000
vn 0.0000 0.0000 -1.0000
vn 0.0045 -1.0000 0.0000
vn 0.0000 0.0000 1.0000
usemtl aluminium
s off
f 13/15/7 14/16/7 12/17/7 11/18/7
f 10/19/8 13/15/8 11/18/8 9/20/8
f 19/21/9 17/22/9 18/23/9 20/24/9
f 16/25/10 15/26/10 17/22/10 19/21/10
f 10/19/11 9/20/11 15/26/11 16/25/11
f 13/15/12 10/19/12 16/25/12 19/21/12
f 14/16/12 13/15/12 19/21/12 20/24/12
f 12/17/13 14/16/13 20/24/13 18/23/13
f 11/18/14 12/17/14 18/23/14 17/22/14
f 9/20/14 11/18/14 17/22/14 15/26/14
o Cube.003
v 0.220914 4.452939 1.651752
v 0.220914 4.452939 0.347281
v 0.223526 5.009991 1.651752
v -0.193742 5.011947 1.651752
v 0.223526 5.009991 0.347281
v -0.193742 5.011947 0.347281
v 0.197964 4.453046 1.651752
v 0.197964 4.453046 0.347281
v 0.207197 4.988403 1.651752
v -0.193885 4.981309 1.651752
v 0.207197 4.988403 0.347281
v -0.193885 4.981309 0.347281
vt 0.375000 0.500000
vt 0.625000 0.500000
vt 0.625000 0.750000
vt 0.375000 0.750000
vt 0.125000 0.500000
vt 0.125000 0.750000
vt 0.375000 0.500000
vt 0.375000 0.750000
vt 0.625000 0.750000
vt 0.625000 0.500000
vt 0.125000 0.500000
vt 0.125000 0.750000
vn 0.0047 1.0000 0.0000
vn 1.0000 -0.0047 0.0000
vn 0.0177 -0.9998 0.0000
vn -0.9999 0.0172 0.0000
vn -0.0047 -1.0000 0.0000
vn 0.0000 0.0000 -1.0000
vn -1.0000 0.0047 0.0000
vn 0.0000 0.0000 1.0000
usemtl aluminium
s off
f 25/27/15 26/28/15 24/29/15 23/30/15
f 22/31/16 25/27/16 23/30/16 21/32/16
f 31/33/17 29/34/17 30/35/17 32/36/17
f 28/37/18 27/38/18 29/34/18 31/33/18
f 22/31/19 21/32/19 27/38/19 28/37/19
f 25/27/20 22/31/20 28/37/20 31/33/20
f 26/28/20 25/27/20 31/33/20 32/36/20
f 24/29/21 26/28/21 32/36/21 30/35/21
f 23/30/22 24/29/22 30/35/22 29/34/22
f 21/32/22 23/30/22 29/34/22 27/38/22
o Cube.004
v -2.111621 2.438360 1.644236
v -2.111621 2.438360 0.339765
v -2.098736 1.881450 1.644236
v -1.681576 1.891102 1.644236
v -2.098736 1.881450 0.339765
v -1.681576 1.891102 0.339765
v -2.088677 2.438891 1.644236
v -2.088677 2.438891 0.339765
v -2.083014 1.903484 1.644236
v -1.682285 1.921732 1.644236
v -2.083014 1.903484 0.339765
v -1.682285 1.921732 0.339765
vt 0.375000 0.500000
vt 0.625000 0.500000
vt 0.625000 0.750000
vt 0.375000 0.750000
vt 0.125000 0.500000
vt 0.125000 0.750000
vt 0.375000 0.500000
vt 0.375000 0.750000
vt 0.625000 0.750000
vt 0.625000 0.500000
vt 0.125000 0.500000
vt 0.125000 0.750000
vn 0.0231 -0.9997 0.0000
vn -0.9997 -0.0231 0.0000
vn -0.0455 0.9990 0.0000
vn 0.9999 0.0106 0.0000
vn -0.0231 0.9997 0.0000
vn 0.0000 0.0000 -1.0000
vn 0.9997 0.0231 0.0000
vn 0.0000 0.0000 1.0000
usemtl aluminium
s off
f 37/39/23 38/40/23 36/41/23 35/42/23
f 34/43/24 37/39/24 35/42/24 33/44/24
f 43/45/25 41/46/25 42/47/25 44/48/25
f 40/49/26 39/50/26 41/46/26 43/45/26
f 34/43/27 33/44/27 39/50/27 40/49/27
f 37/39/28 34/43/28 40/49/28 43/45/28
f 38/40/28 37/39/28 43/45/28 44/48/28
f 36/41/29 38/40/29 44/48/29 42/47/29
f 35/42/30 36/41/30 42/47/30 41/46/30
f 33/44/30 35/42/30 41/46/30 39/50/30
o Cube.005
v -0.312454 1.883717 1.665746
v -0.312454 1.883717 0.361275
v 0.244539 1.892235 1.665746
v 0.238159 2.309458 1.665746
v 0.244539 1.892235 0.361275
v 0.238159 2.309458 0.361275
v -0.312805 1.906665 1.665746
v -0.312805 1.906665 0.361275
v 0.222630 1.908129 1.665746
v 0.207524 2.308990 1.665746
v 0.222630 1.908129 0.361275
v 0.207524 2.308990 0.361275
vt 0.375000 0.500000
vt 0.625000 0.500000
vt 0.625000 0.750000
vt 0.375000 0.750000
vt 0.125000 0.500000
vt 0.125000 0.750000
vt 0.375000 0.500000
vt 0.375000 0.750000
vt 0.625000 0.750000
vt 0.625000 0.500000
vt 0.125000 0.500000
vt 0.125000 0.750000
vn 0.9999 0.0153 0.0000
vn 0.0153 -0.9999 0.0000
vn -0.9993 -0.0377 0.0000
vn -0.0027 1.0000 0.0000
vn -0.9999 -0.0153 0.0000
vn -0.0000 0.0000 -1.0000
vn -0.0153 0.9999 0.0000
vn 0.0000 0.0000 1.0000
usemtl aluminium
s off
f 49/51/31 50/52/31 48/53/31 47/54/31
f 46/55/32 49/51/32 47/54/32 45/56/32
f 55/57/33 53/58/33 54/59/33 56/60/33
f 52/61/34 51/62/34 53/58/34 55/57/34
f 46/55/35 45/56/35 51/62/35 52/61/35
f 49/51/36 46/55/36 52/61/36 55/57/36
f 50/52/36 49/51/36 55/57/36 56/60/36
f 48/53/37 50/52/37 56/60/37 54/59/37
f 47/54/38 48/53/38 54/59/38 53/58/38
f 45/56/38 47/54/38 53/58/38 51/62/38
o Cube.006
v -0.329280 5.007702 1.702400
v -0.315383 1.924149 1.664227
v 0.227740 5.010286 1.696393
v 0.223216 5.015432 1.279081
v 0.241637 1.926733 1.658221
v 0.237113 1.931879 1.240908
v -0.329528 5.007985 1.679448
v -0.315632 1.924432 1.641275
v 0.205902 5.010386 1.680398
v 0.192580 5.015290 1.279411
v 0.219798 1.926833 1.642225
v 0.206477 1.931737 1.241238
vt 0.375000 0.500000
vt 0.625000 0.500000
vt 0.625000 0.750000
vt 0.375000 0.750000
vt 0.125000 0.500000
vt 0.125000 0.750000
vt 0.375000 0.500000
vt 0.375000 0.750000
vt 0.625000 0.750000
vt 0.625000 0.500000
vt 0.125000 0.500000
vt 0.125000 0.750000
vn 0.9999 0.0046 -0.0108
vn 0.0108 -0.0123 0.9999
vn -0.9994 -0.0049 0.0331
vn 0.0017 0.0124 -0.9999
vn -0.9999 -0.0046 0.0108
vn 0.0045 -0.9999 -0.0124
vn -0.0108 0.0123 -0.9999
vn -0.0045 0.9999 0.0124
usemtl aluminium.001
s off
f 61/63/39 62/64/39 60/65/39 59/66/39
f 58/67/40 61/63/40 59/66/40 57/68/40
f 67/69/41 65/70/41 66/71/41 68/72/41
f 64/73/42 63/74/42 65/70/42 67/69/42
f 58/67/43 57/68/43 63/74/43 64/73/43
f 61/63/44 58/67/44 64/73/44 67/69/44
f 62/64/44 61/63/44 67/69/44 68/72/44
f 60/65/45 62/64/45 68/72/45 66/71/45
f 59/66/46 60/65/46 66/71/46 65/70/46
f 57/68/46 59/66/46 65/70/46 63/74/46
o Cube.007
v -2.159517 4.961338 1.123543
v -2.107455 1.877956 1.124257
v -2.163898 4.961392 1.680584
v -1.746602 4.968439 1.683866
v -2.111837 1.878011 1.681298
v -1.694540 1.885058 1.684579
v -2.136566 4.961725 1.123724
v -2.084504 1.878344 1.124437
v -2.147500 4.961665 1.659049
v -1.746361 4.968436 1.653229
v -2.095438 1.878283 1.659763
v -1.694299 1.885055 1.653942
vt 0.375000 0.500000
vt 0.625000 0.500000
vt 0.625000 0.750000
vt 0.375000 0.750000
vt 0.125000 0.500000
vt 0.125000 0.750000
vt 0.375000 0.500000
vt 0.375000 0.750000
vt 0.625000 0.750000
vt 0.625000 0.500000
vt 0.125000 0.500000
vt 0.125000 0.750000
vn -0.0079 0.0001 1.0000
vn -0.9998 -0.0169 -0.0079
vn -0.0145 -0.0005 -0.9999
vn 0.9996 0.0169 0.0204
vn 0.0079 -0.0001 -1.0000
vn 0.0169 -0.9999 0.0002
vn 0.9998 0.0169 0.0079
vn -0.0169 0.9999 -0.0002
usemtl aluminium.002
s off
f 73/75/47 74/76/47 72/77/47 71/78/47
f 70/79/48 73/75/48 71/78/48 69/80/48
f 79/81/49 77/82/49 78/83/49 80/84/49
f 76/85/50 75/86/50 77/82/50 79/81/50
f 70/79/51 69/80/51 75/86/51 76/85/51
f 73/75/52 70/79/52 76/85/52 79/81/52
f 74/76/52 73/75/52 79/81/52 80/84/52
f 72/77/53 74/76/53 80/84/53 78/83/53
f 71/78/54 72/77/54 78/83/54 77/82/54
f 69/80/54 71/78/54 77/82/54 75/86/54
o Cube.008
v -2.077712 1.875761 1.133072
v 0.246186 1.886234 1.169070
v -2.086369 1.881731 1.690177
v -2.088179 2.298975 1.685677
v 0.237530 1.892205 1.726174
v 0.235719 2.309448 1.721675
v -2.077812 1.898710 1.132825
v 0.246087 1.909183 1.168822
v -2.086102 1.897726 1.668336
v -2.087703 2.298646 1.655036
v 0.237796 1.908199 1.704334
v 0.236195 2.309120 1.691034
vt 0.375000 0.500000
vt 0.625000 0.500000
vt 0.625000 0.750000
vt 0.375000 0.750000
vt 0.125000 0.500000
vt 0.125000 0.750000
vt 0.375000 0.500000
vt 0.375000 0.750000
vt 0.625000 0.750000
vt 0.625000 0.500000
vt 0.125000 0.500000
vt 0.125000 0.750000
vn -0.0155 0.0107 0.9998
vn 0.0043 -0.9999 0.0108
vn 0.0156 -0.0331 -0.9993
vn -0.0045 1.0000 0.0018
vn 0.0155 -0.0107 -0.9998
vn 0.9999 0.0045 0.0155
vn -0.0043 0.9999 -0.0108
vn -0.9999 -0.0045 -0.0155
usemtl aluminium.003
s off
f 85/87/55 86/88/55 84/89/55 83/90/55
f 82/91/56 85/87/56 83/90/56 81/92/56
f 91/93/57 89/94/57 90/95/57 92/96/57
f 88/97/58 87/98/58 89/94/58 91/93/58
f 82/91/59 81/92/59 87/98/59 88/97/59
f 85/87/60 82/91/60 88/97/60 91/93/60
f 86/88/60 85/87/60 91/93/60 92/96/60
f 84/89/61 86/88/61 92/96/61 90/95/61
f 83/90/62 84/89/62 90/95/62 89/94/62
f 81/92/62 83/90/62 89/94/62 87/98/62
o Cube.009
v -2.111870 4.547521 1.714675
v 0.211676 4.593987 1.714854
v -2.120432 4.975710 1.712196
v -2.120352 4.973297 1.294934
v 0.203113 5.022177 1.712376
v 0.203194 5.019763 1.295114
v -2.111865 4.547388 1.691725
v 0.211680 4.593854 1.691905
v -2.120096 4.958964 1.696066
v -2.119881 4.949746 1.295071
v 0.203449 5.005431 1.696245
v 0.203665 4.996212 1.295250
vt 0.375000 0.500000
vt 0.625000 0.500000
vt 0.625000 0.750000
vt 0.375000 0.750000
vt 0.125000 0.500000
vt 0.125000 0.750000
vt 0.375000 0.500000
vt 0.375000 0.750000
vt 0.625000 0.750000
vt 0.625000 0.500000
vt 0.125000 0.500000
vt 0.125000 0.750000
vn -0.0200 0.9998 -0.0058
vn -0.0002 0.0058 1.0000
vn 0.0200 -0.9995 0.0230
vn -0.0001 0.0105 -0.9999
vn 0.0200 -0.9998 0.0058
vn 0.9998 0.0200 0.0001
vn 0.0002 -0.0058 -1.0000
vn -0.9998 -0.0200 -0.0001
usemtl aluminium.004
s off
f 97/99/63 98/100/63 96/101/63 95/102/63
f 94/103/64 97/99/64 95/102/64 93/104/64
f 103/105/65 101/106/65 102/107/65 104/108/65
f 100/109/66 99/110/66 101/106/66 103/105/66
f 94/103/67 93/104/67 99/110/67 100/109/67
f 97/99/68 94/103/68 100/109/68 103/105/68
f 98/100/68 97/99/68 103/105/68 104/108/68
f 96/101/69 98/100/69 104/108/69 102/107/69
f 95/102/70 96/101/70 102/107/70 101/106/70
f 93/104/70 95/102/70 101/106/70 99/110/70
o Cylinder
v -0.011310 3.652429 1.778176
v -0.011331 3.657048 1.613236
v -0.050583 3.648385 1.778067
v -0.050604 3.653004 1.613127
v -0.088311 3.636762 1.777747
v -0.088332 3.641381 1.612807
v -0.123046 3.618008 1.777226
v -0.123067 3.622627 1.612286
v -0.153452 3.592842 1.776525
v -0.153473 3.597461 1.611585
v -0.178361 3.562232 1.775671
v -0.178381 3.566852 1.610731
v -0.196815 3.527355 1.774696
v -0.196835 3.531974 1.609756
v -0.208105 3.489550 1.773639
v -0.208126 3.494169 1.608699
v -0.211798 3.450271 1.772540
v -0.211819 3.454890 1.607600
v -0.207751 3.411026 1.771440
v -0.207772 3.415646 1.606500
v -0.196120 3.373325 1.770383
v -0.196141 3.377944 1.605443
v -0.177353 3.338615 1.769408
v -0.177374 3.343235 1.604468
v -0.152169 3.308231 1.768554
v -0.152190 3.312850 1.603614
v -0.121538 3.283341 1.767853
v -0.121559 3.287960 1.602913
v -0.086636 3.264900 1.767333
v -0.086656 3.269520 1.602393
v -0.048804 3.253618 1.767012
v -0.048824 3.258237 1.602072
v -0.009496 3.249928 1.766904
v -0.009517 3.254548 1.601964
v 0.029777 3.253973 1.767012
v 0.029756 3.258592 1.602072
v 0.067505 3.265595 1.767333
v 0.067485 3.270214 1.602393
v 0.102240 3.284349 1.767853
v 0.102219 3.288969 1.602913
v 0.132646 3.309515 1.768554
v 0.132625 3.314134 1.603614
v 0.157555 3.340125 1.769408
v 0.157534 3.344744 1.604468
v 0.176009 3.375002 1.770383
v 0.175988 3.379621 1.605443
v 0.187299 3.412807 1.771440
v 0.187278 3.417426 1.606500
v 0.190992 3.452086 1.772540
v 0.190971 3.456706 1.607600
v 0.186945 3.491331 1.773639
v 0.186924 3.495950 1.608699
v 0.175314 3.529032 1.774697
v 0.175293 3.533652 1.609756
v 0.156547 3.563742 1.775671
v 0.156526 3.568361 1.610731
v 0.131363 3.594126 1.776525
v 0.131342 3.598745 1.611585
v 0.100732 3.619016 1.777226
v 0.100711 3.623636 1.612286
v 0.065829 3.637457 1.777747
v 0.065808 3.642076 1.612807
v 0.027997 3.648739 1.778067
v 0.027976 3.653358 1.613127
vt 1.000000 0.500000
vt 1.000000 1.000000
vt 0.968750 1.000000
vt 0.968750 0.500000
vt 0.937500 1.000000
vt 0.937500 0.500000
vt 0.906250 1.000000
vt 0.906250 0.500000
vt 0.875000 1.000000
vt 0.875000 0.500000
vt 0.843750 1.000000
vt 0.843750 0.500000
vt 0.812500 1.000000
vt 0.812500 0.500000
vt 0.781250 1.000000
vt 0.781250 0.500000
vt 0.750000 1.000000
vt 0.750000 0.500000
vt 0.718750 1.000000
vt 0.718750 0.500000
vt 0.687500 1.000000
vt 0.687500 0.500000
vt 0.656250 1.000000
vt 0.656250 0.500000
vt 0.625000 1.000000
vt 0.625000 0.500000
vt 0.593750 1.000000
vt 0.593750 0.500000
vt 0.562500 1.000000
vt 0.562500 0.500000
vt 0.531250 1.000000
vt 0.531250 0.500000
vt 0.500000 1.000000
vt 0.500000 0.500000
vt 0.468750 1.000000
vt 0.468750 0.500000
vt 0.437500 1.000000
vt 0.437500 0.500000
vt 0.406250 1.000000
vt 0.406250 0.500000
vt 0.375000 1.000000
vt 0.375000 0.500000
vt 0.343750 1.000000
vt 0.343750 0.500000
vt 0.312500 1.000000
vt 0.312500 0.500000
vt 0.281250 1.000000
vt 0.281250 0.500000
vt 0.250000 1.000000
vt 0.250000 0.500000
vt 0.218750 1.000000
vt 0.218750 0.500000
vt 0.187500 1.000000
vt 0.187500 0.500000
vt 0.156250 1.000000
vt 0.156250 0.500000
vt 0.125000 1.000000
vt 0.125000 0.500000
vt 0.093750 1.000000
vt 0.093750 0.500000
vt 0.062500 1.000000
vt 0.062500 0.500000
vt 0.296822 0.485388
vt 0.250000 0.490000
vt 0.203179 0.485389
vt 0.158156 0.471731
vt 0.116663 0.449553
vt 0.080295 0.419706
vt 0.050447 0.383337
vt 0.028269 0.341844
vt 0.014612 0.296822
vt 0.010000 0.250000
vt 0.014611 0.203179
vt 0.028269 0.158156
vt 0.050447 0.116663
vt 0.080294 0.080294
vt 0.116663 0.050447
vt 0.158156 0.028269
vt 0.203178 0.014612
vt 0.250000 0.010000
vt 0.296822 0.014612
vt 0.341844 0.028269
vt 0.383337 0.050447
vt 0.419706 0.080294
vt 0.449553 0.116663
vt 0.471731 0.158156
vt 0.485388 0.203178
vt 0.490000 0.250000
vt 0.485388 0.296822
vt 0.471731 0.341844
vt 0.449553 0.383337
vt 0.419706 0.419706
vt 0.383337 0.449553
vt 0.341844 0.471731
vt 0.031250 1.000000
vt 0.031250 0.500000
vt 0.000000 1.000000
vt 0.000000 0.500000
vt 0.750000 0.490000
vt 0.796822 0.485388
vt 0.841844 0.471731
vt 0.883337 0.449553
vt 0.919706 0.419706
vt 0.949553 0.383337
vt 0.971731 0.341844
vt 0.985388 0.296822
vt 0.990000 0.250000
vt 0.985388 0.203178
vt 0.971731 0.158156
vt 0.949553 0.116663
vt 0.919706 0.080294
vt 0.883337 0.050447
vt 0.841844 0.028269
vt 0.796822 0.014612
vt 0.750000 0.010000
vt 0.703178 0.014612
vt 0.658156 0.028269
vt 0.616663 0.050447
vt 0.580294 0.080294
vt 0.550447 0.116663
vt 0.528269 0.158156
vt 0.514611 0.203179
vt 0.510000 0.250000
vt 0.514612 0.296822
vt 0.528269 0.341844
vt 0.550447 0.383337
vt 0.580295 0.419706
vt 0.616663 0.449553
vt 0.658156 0.471731
vt 0.703179 0.485389
vn -0.1025 0.9943 0.0279
vn -0.2945 0.9553 0.0268
vn -0.4752 0.8795 0.0247
vn -0.6377 0.7699 0.0216
vn -0.7758 0.6308 0.0178
vn -0.8840 0.4674 0.0132
vn -0.9582 0.2859 0.0081
vn -0.9956 0.0935 0.0027
vn -0.9947 -0.1025 -0.0027
vn -0.9556 -0.2946 -0.0081
vn -0.8797 -0.4753 -0.0132
vn -0.7700 -0.6377 -0.0178
vn -0.6308 -0.7757 -0.0216
vn -0.4673 -0.8838 -0.0247
vn -0.2859 -0.9579 -0.0268
vn -0.0935 -0.9952 -0.0279
vn 0.1025 -0.9943 -0.0279
vn 0.2945 -0.9553 -0.0268
vn 0.4752 -0.8795 -0.0247
vn 0.6377 -0.7699 -0.0216
vn 0.7758 -0.6308 -0.0178
vn 0.8840 -0.4674 -0.0132
vn 0.9582 -0.2859 -0.0081
vn 0.9956 -0.0935 -0.0027
vn 0.9947 0.1025 0.0027
vn 0.9556 0.2946 0.0081
vn 0.8797 0.4753 0.0132
vn 0.7700 0.6377 0.0178
vn 0.6308 0.7757 0.0216
vn 0.4673 0.8838 0.0247
vn -0.0001 0.0280 -0.9996
vn 0.2859 0.9579 0.0268
vn 0.0935 0.9952 0.0279
vn 0.0001 -0.0280 0.9996
usemtl knop
s off
f 105/111/71 106/112/71 108/113/71 107/114/71
f 107/114/72 108/113/72 110/115/72 109/116/72
f 109/116/73 110/115/73 112/117/73 111/118/73
f 111/118/74 112/117/74 114/119/74 113/120/74
f 113/120/75 114/119/75 116/121/75 115/122/75
f 115/122/76 116/121/76 118/123/76 117/124/76
f 117/124/77 118/123/77 120/125/77 119/126/77
f 119/126/78 120/125/78 122/127/78 121/128/78
f 121/128/79 122/127/79 124/129/79 123/130/79
f 123/130/80 124/129/80 126/131/80 125/132/80
f 125/132/81 126/131/81 128/133/81 127/134/81
f 127/134/82 128/133/82 130/135/82 129/136/82
f 129/136/83 130/135/83 132/137/83 131/138/83
f 131/138/84 132/137/84 134/139/84 133/140/84
f 133/140/85 134/139/85 136/141/85 135/142/85
f 135/142/86 136/141/86 138/143/86 137/144/86
f 137/144/87 138/143/87 140/145/87 139/146/87
f 139/146/88 140/145/88 142/147/88 141/148/88
f 141/148/89 142/147/89 144/149/89 143/150/89
f 143/150/90 144/149/90 146/151/90 145/152/90
f 145/152/91 146/151/91 148/153/91 147/154/91
f 147/154/92 148/153/92 150/155/92 149/156/92
f 149/156/93 150/155/93 152/157/93 151/158/93
f 151/158/94 152/157/94 154/159/94 153/160/94
f 153/160/95 154/159/95 156/161/95 155/162/95
f 155/162/96 156/161/96 158/163/96 157/164/96
f 157/164/97 158/163/97 160/165/97 159/166/97
f 159/166/98 160/165/98 162/167/98 161/168/98
f 161/168/99 162/167/99 164/169/99 163/170/99
f 163/170/100 164/169/100 166/171/100 165/172/100
f 108/173/101 106/174/101 168/175/101 166/176/101 164/177/101 162/178/101 160/179/101 158/180/101 156/181/101 154/182/101 152/183/101 150/184/101 148/185/101 146/186/101 144/187/101 142/188/101 140/189/101 138/190/101 136/191/101 134/192/101 132/193/101 130/194/101 128/195/101 126/196/101 124/197/101 122/198/101 120/199/101 118/200/101 116/201/101 114/202/101 112/203/101 110/204/101
f 165/172/102 166/171/102 168/205/102 167/206/102
f 167/206/103 168/205/103 106/207/103 105/208/103
f 105/209/104 107/210/104 109/211/104 111/212/104 113/213/104 115/214/104 117/215/104 119/216/104 121/217/104 123/218/104 125/219/104 127/220/104 129/221/104 131/222/104 133/223/104 135/224/104 137/225/104 139/226/104 141/227/104 143/228/104 145/229/104 147/230/104 149/231/104 151/232/104 153/233/104 155/234/104 157/235/104 159/236/104 161/237/104 163/238/104 165/239/104 167/240/104
