# Blender v2.92.0 OBJ File: 'pintukampus.blend'
# www.blender.org
mtllib pintukampus.mtl
o Cube
v 0.324017 6.719709 -1.514569
v 0.324017 0.101887 -1.514569
v 0.324017 6.719709 2.054166
v 0.324017 0.101887 2.054166
v -0.164841 6.719709 -1.514569
v -0.164841 0.101887 -1.514569
v -0.164841 6.719709 2.054166
v -0.164841 0.101887 2.054166
vt 0.625000 0.500000
vt 0.875000 0.500000
vt 0.875000 0.750000
vt 0.625000 0.750000
vt 0.375000 0.750000
vt 0.625000 1.000000
vt 0.375000 1.000000
vt 0.375000 0.000000
vt 0.625000 0.000000
vt 0.625000 0.250000
vt 0.375000 0.250000
vt 0.125000 0.500000
vt 0.375000 0.500000
vt 0.125000 0.750000
vn 0.0000 1.0000 0.0000
vn 0.0000 0.0000 1.0000
vn -1.0000 0.0000 0.0000
vn 0.0000 -1.0000 0.0000
vn 1.0000 0.0000 0.0000
vn 0.0000 0.0000 -1.0000
usemtl coklat
s off
f 1/1/1 5/2/1 7/3/1 3/4/1
f 4/5/2 3/4/2 7/6/2 8/7/2
f 8/8/3 7/9/3 5/10/3 6/11/3
f 6/12/4 2/13/4 4/5/4 8/14/4
f 2/13/5 1/1/5 3/4/5 4/5/5
f 6/11/6 5/10/6 1/1/6 2/13/6
o Cube.001
v 0.367549 6.428808 -0.782176
v 0.367549 1.180297 -0.782176
v 0.367549 6.428808 1.276853
v 0.367549 1.180297 1.276853
v -0.233243 6.428808 -0.782176
v -0.233243 1.180297 -0.782176
v -0.233243 6.428808 1.276853
v -0.233243 1.180297 1.276853
vt 0.625000 0.500000
vt 0.875000 0.500000
vt 0.875000 0.750000
vt 0.625000 0.750000
vt 0.375000 0.750000
vt 0.625000 1.000000
vt 0.375000 1.000000
vt 0.375000 0.000000
vt 0.625000 0.000000
vt 0.625000 0.250000
vt 0.375000 0.250000
vt 0.125000 0.500000
vt 0.375000 0.500000
vt 0.125000 0.750000
vn 0.0000 1.0000 0.0000
vn 0.0000 0.0000 1.0000
vn -1.0000 0.0000 0.0000
vn 0.0000 -1.0000 0.0000
vn 1.0000 0.0000 0.0000
vn 0.0000 0.0000 -1.0000
usemtl Material.001
s off
f 9/15/7 13/16/7 15/17/7 11/18/7
f 12/19/8 11/18/8 15/20/8 16/21/8
f 16/22/9 15/23/9 13/24/9 14/25/9
f 14/26/10 10/27/10 12/19/10 16/28/10
f 10/27/11 9/15/11 11/18/11 12/19/11
f 14/25/12 13/24/12 9/15/12 10/27/12
o Cube.002
v 0.243228 2.610343 1.876118
v 0.243228 3.961089 1.876118
v 0.243228 2.610343 1.524843
v 0.243228 3.961089 1.524843
v 0.420418 2.610343 1.876118
v 0.420418 3.961089 1.876118
v 0.420418 2.610343 1.524843
v 0.420418 3.961089 1.524843
vt 0.375000 0.000000
vt 0.625000 0.000000
vt 0.625000 0.250000
vt 0.375000 0.250000
vt 0.625000 0.500000
vt 0.375000 0.500000
vt 0.625000 0.750000
vt 0.375000 0.750000
vt 0.625000 1.000000
vt 0.375000 1.000000
vt 0.125000 0.500000
vt 0.125000 0.750000
vt 0.875000 0.500000
vt 0.875000 0.750000
vn -1.0000 0.0000 0.0000
vn 0.0000 0.0000 -1.0000
vn 1.0000 0.0000 0.0000
vn 0.0000 0.0000 1.0000
vn 0.0000 -1.0000 0.0000
vn 0.0000 1.0000 0.0000
usemtl Material.002
s off
f 17/29/13 18/30/13 20/31/13 19/32/13
f 19/32/14 20/31/14 24/33/14 23/34/14
f 23/34/15 24/33/15 22/35/15 21/36/15
f 21/36/16 22/35/16 18/37/16 17/38/16
f 19/39/17 23/34/17 21/36/17 17/40/17
f 24/33/18 20/41/18 18/42/18 22/35/18
o Cube.003
v 0.487781 3.226781 1.088013
v 0.489279 3.226062 1.743079
v 0.488977 3.347131 1.088143
v 0.490476 3.346411 1.743209
v 0.664949 3.225021 1.087606
v 0.666448 3.224302 1.742672
v 0.666145 3.345370 1.087735
v 0.667644 3.344651 1.742801
vt 0.375000 0.000000
vt 0.625000 0.000000
vt 0.625000 0.250000
vt 0.375000 0.250000
vt 0.625000 0.500000
vt 0.375000 0.500000
vt 0.625000 0.750000
vt 0.375000 0.750000
vt 0.625000 1.000000
vt 0.375000 1.000000
vt 0.125000 0.500000
vt 0.125000 0.750000
vt 0.875000 0.500000
vt 0.875000 0.750000
vn -0.9999 0.0099 0.0023
vn 0.0099 1.0000 0.0011
vn 0.9999 -0.0099 -0.0023
vn -0.0099 -0.9999 -0.0011
vn -0.0023 0.0011 -1.0000
vn 0.0023 -0.0011 1.0000
usemtl Material.002
s off
f 25/43/19 26/44/19 28/45/19 27/46/19
f 27/46/20 28/45/20 32/47/20 31/48/20
f 31/48/21 32/47/21 30/49/21 29/50/21
f 29/50/22 30/49/22 26/51/22 25/52/22
f 27/53/23 31/48/23 29/50/23 25/54/23
f 32/47/24 28/55/24 26/56/24 30/49/24
o Cube.004
v 0.289569 3.229163 1.659502
v 0.627807 3.225695 1.631154
v 0.291145 3.349466 1.663594
v 0.629384 3.345997 1.635246
v 0.298432 3.225435 1.765715
v 0.636671 3.221967 1.737368
v 0.300009 3.345737 1.769807
v 0.638247 3.342269 1.741459
vt 0.375000 0.000000
vt 0.375000 0.250000
vt 0.625000 0.250000
vt 0.625000 0.000000
vt 0.375000 0.500000
vt 0.625000 0.500000
vt 0.375000 0.750000
vt 0.625000 0.750000
vt 0.375000 1.000000
vt 0.625000 1.000000
vt 0.125000 0.500000
vt 0.125000 0.750000
vt 0.875000 0.750000
vt 0.875000 0.500000
vn -0.0831 0.0350 -0.9959
vn 0.0131 0.9993 0.0340
vn 0.0831 -0.0350 0.9959
vn -0.0131 -0.9993 -0.0340
vn -0.9965 0.0102 0.0835
vn 0.9965 -0.0102 -0.0835
usemtl Material.002
s off
f 33/57/25 35/58/25 36/59/25 34/60/25
f 35/58/26 39/61/26 40/62/26 36/59/26
f 39/61/27 37/63/27 38/64/27 40/62/27
f 37/63/28 33/65/28 34/66/28 38/64/28
f 35/67/29 33/68/29 37/63/29 39/61/29
f 40/62/30 38/64/30 34/69/30 36/70/30
o Cube.007
v -0.068376 2.651819 1.607545
v -0.068376 4.002566 1.607545
v -0.066830 2.651819 1.958816
v -0.066830 4.002566 1.958816
v -0.245565 2.651819 1.608326
v -0.245565 4.002566 1.608326
v -0.244018 2.651819 1.959597
v -0.244018 4.002566 1.959597
vt 0.375000 0.000000
vt 0.625000 0.000000
vt 0.625000 0.250000
vt 0.375000 0.250000
vt 0.625000 0.500000
vt 0.375000 0.500000
vt 0.625000 0.750000
vt 0.375000 0.750000
vt 0.625000 1.000000
vt 0.375000 1.000000
vt 0.125000 0.500000
vt 0.125000 0.750000
vt 0.875000 0.500000
vt 0.875000 0.750000
vn 1.0000 0.0000 -0.0044
vn 0.0044 0.0000 1.0000
vn -1.0000 0.0000 0.0044
vn -0.0044 0.0000 -1.0000
vn 0.0000 -1.0000 0.0000
vn 0.0000 1.0000 0.0000
usemtl Material.003
s off
f 41/71/31 42/72/31 44/73/31 43/74/31
f 43/74/32 44/73/32 48/75/32 47/76/32
f 47/76/33 48/75/33 46/77/33 45/78/33
f 45/78/34 46/77/34 42/79/34 41/80/34
f 43/81/35 47/76/35 45/78/35 41/82/35
f 48/75/36 44/83/36 42/84/36 46/77/36
o Cube.006
v -0.309456 3.288868 1.791135
v -0.313840 3.288149 1.136082
v -0.310653 3.409218 1.791011
v -0.315036 3.408499 1.135958
v -0.486621 3.287108 1.792323
v -0.491004 3.286389 1.137270
v -0.487818 3.407457 1.792198
v -0.492201 3.406738 1.137146
vt 0.375000 0.000000
vt 0.625000 0.000000
vt 0.625000 0.250000
vt 0.375000 0.250000
vt 0.625000 0.500000
vt 0.375000 0.500000
vt 0.625000 0.750000
vt 0.375000 0.750000
vt 0.625000 1.000000
vt 0.375000 1.000000
vt 0.125000 0.500000
vt 0.125000 0.750000
vt 0.875000 0.500000
vt 0.875000 0.750000
vn 0.9999 0.0099 -0.0067
vn -0.0099 1.0000 -0.0010
vn -0.9999 -0.0099 0.0067
vn 0.0099 -1.0000 0.0010
vn 0.0067 0.0011 1.0000
vn -0.0067 -0.0011 -1.0000
usemtl Material.003
s off
f 49/85/37 50/86/37 52/87/37 51/88/37
f 51/88/38 52/87/38 56/89/38 55/90/38
f 55/90/39 56/89/39 54/91/39 53/92/39
f 53/92/40 54/91/40 50/93/40 49/94/40
f 51/95/41 55/90/41 53/92/41 49/96/41
f 56/89/42 52/97/42 50/98/42 54/91/42
o Cube.005
v -0.113763 3.291251 1.763110
v -0.451873 3.287782 1.792947
v -0.115358 3.411553 1.759025
v -0.453468 3.408085 1.788862
v -0.123094 3.287522 1.656936
v -0.461204 3.284054 1.686773
v -0.124689 3.407824 1.652852
v -0.462799 3.404356 1.682689
vt 0.375000 0.000000
vt 0.375000 0.250000
vt 0.625000 0.250000
vt 0.625000 0.000000
vt 0.375000 0.500000
vt 0.625000 0.500000
vt 0.375000 0.750000
vt 0.625000 0.750000
vt 0.375000 1.000000
vt 0.625000 1.000000
vt 0.125000 0.500000
vt 0.125000 0.750000
vt 0.875000 0.750000
vt 0.875000 0.500000
vn 0.0875 0.0350 0.9956
vn -0.0132 0.9993 -0.0339
vn -0.0875 -0.0350 -0.9956
vn 0.0132 -0.9993 0.0339
vn 0.9961 0.0102 -0.0879
vn -0.9961 -0.0102 0.0879
usemtl Material.003
s off
f 57/99/43 59/100/43 60/101/43 58/102/43
f 59/100/44 63/103/44 64/104/44 60/101/44
f 63/103/45 61/105/45 62/106/45 64/104/45
f 61/105/46 57/107/46 58/108/46 62/106/46
f 59/109/47 57/110/47 61/105/47 63/103/47
f 64/104/48 62/106/48 58/111/48 60/112/48
o Cube.009
v 0.324017 6.719709 2.105365
v 0.324017 0.101887 2.105365
v 0.324017 6.719709 5.674100
v 0.324017 0.101887 5.674100
v -0.164841 6.719709 2.105365
v -0.164841 0.101887 2.105365
v -0.164841 6.719709 5.674100
v -0.164841 0.101887 5.674100
vt 0.625000 0.500000
vt 0.875000 0.500000
vt 0.875000 0.750000
vt 0.625000 0.750000
vt 0.375000 0.750000
vt 0.625000 1.000000
vt 0.375000 1.000000
vt 0.375000 0.000000
vt 0.625000 0.000000
vt 0.625000 0.250000
vt 0.375000 0.250000
vt 0.125000 0.500000
vt 0.375000 0.500000
vt 0.125000 0.750000
vn 0.0000 1.0000 0.0000
vn 0.0000 0.0000 1.0000
vn -1.0000 0.0000 0.0000
vn 0.0000 -1.0000 0.0000
vn 1.0000 0.0000 0.0000
vn 0.0000 0.0000 -1.0000
usemtl coklat
s off
f 65/113/49 69/114/49 71/115/49 67/116/49
f 68/117/50 67/116/50 71/118/50 72/119/50
f 72/120/51 71/121/51 69/122/51 70/123/51
f 70/124/52 66/125/52 68/117/52 72/126/52
f 66/125/53 65/113/53 67/116/53 68/117/53
f 70/123/54 69/122/54 65/113/54 66/125/54
o Cube.008
v 0.367549 6.428808 2.664608
v 0.367549 1.180297 2.664608
v 0.367549 6.428808 4.723638
v 0.367549 1.180297 4.723638
v -0.233243 6.428808 2.664608
v -0.233243 1.180297 2.664608
v -0.233243 6.428808 4.723638
v -0.233243 1.180297 4.723638
vt 0.625000 0.500000
vt 0.875000 0.500000
vt 0.875000 0.750000
vt 0.625000 0.750000
vt 0.375000 0.750000
vt 0.625000 1.000000
vt 0.375000 1.000000
vt 0.375000 0.000000
vt 0.625000 0.000000
vt 0.625000 0.250000
vt 0.375000 0.250000
vt 0.125000 0.500000
vt 0.375000 0.500000
vt 0.125000 0.750000
vn 0.0000 1.0000 0.0000
vn 0.0000 0.0000 1.0000
vn -1.0000 0.0000 0.0000
vn 0.0000 -1.0000 0.0000
vn 1.0000 0.0000 0.0000
vn 0.0000 0.0000 -1.0000
usemtl Material.004
s off
f 73/127/55 77/128/55 79/129/55 75/130/55
f 76/131/56 75/130/56 79/132/56 80/133/56
f 80/134/57 79/135/57 77/136/57 78/137/57
f 78/138/58 74/139/58 76/131/58 80/140/58
f 74/139/59 73/127/59 75/130/59 76/131/59
f 78/137/60 77/136/60 73/127/60 74/139/60
o Cube.010_Cube.020
v 0.324017 9.245702 5.619561
v 0.324017 -0.011804 5.619561
v 0.324017 9.245702 5.941023
v 0.324017 -0.011804 5.941023
v -0.164841 9.245702 5.619561
v -0.164841 -0.011804 5.619561
v -0.164841 9.245702 5.941023
v -0.164841 -0.011804 5.941023
vt 0.625000 0.500000
vt 0.875000 0.500000
vt 0.875000 0.750000
vt 0.625000 0.750000
vt 0.375000 0.750000
vt 0.625000 1.000000
vt 0.375000 1.000000
vt 0.375000 0.000000
vt 0.625000 0.000000
vt 0.625000 0.250000
vt 0.375000 0.250000
vt 0.125000 0.500000
vt 0.375000 0.500000
vt 0.125000 0.750000
vn 0.0000 1.0000 0.0000
vn 0.0000 0.0000 1.0000
vn -1.0000 0.0000 0.0000
vn 0.0000 -1.0000 0.0000
vn 1.0000 0.0000 0.0000
vn 0.0000 0.0000 -1.0000
usemtl Material.012
s off
f 81/141/61 85/142/61 87/143/61 83/144/61
f 84/145/62 83/144/62 87/146/62 88/147/62
f 88/148/63 87/149/63 85/150/63 86/151/63
f 86/152/64 82/153/64 84/145/64 88/154/64
f 82/153/65 81/141/65 83/144/65 84/145/65
f 86/151/66 85/150/66 81/141/66 82/153/66
o Cube.011_Cube.021
v 0.324017 9.344084 -1.767626
v 0.324017 0.086578 -1.767626
v 0.324017 9.344084 -1.446164
v 0.324017 0.086578 -1.446164
v -0.164841 9.344084 -1.767626
v -0.164841 0.086578 -1.767626
v -0.164841 9.344084 -1.446164
v -0.164841 0.086578 -1.446164
vt 0.625000 0.500000
vt 0.875000 0.500000
vt 0.875000 0.750000
vt 0.625000 0.750000
vt 0.375000 0.750000
vt 0.625000 1.000000
vt 0.375000 1.000000
vt 0.375000 0.000000
vt 0.625000 0.000000
vt 0.625000 0.250000
vt 0.375000 0.250000
vt 0.125000 0.500000
vt 0.375000 0.500000
vt 0.125000 0.750000
vn 0.0000 1.0000 0.0000
vn 0.0000 0.0000 1.0000
vn -1.0000 0.0000 0.0000
vn 0.0000 -1.0000 0.0000
vn 1.0000 0.0000 0.0000
vn 0.0000 0.0000 -1.0000
usemtl Material.013
s off
f 89/155/67 93/156/67 95/157/67 91/158/67
f 92/159/68 91/158/68 95/160/68 96/161/68
f 96/162/69 95/163/69 93/164/69 94/165/69
f 94/166/70 90/167/70 92/159/70 96/168/70
f 90/167/71 89/155/71 91/158/71 92/159/71
f 94/165/72 93/164/72 89/155/72 90/167/72
o Cube.012_Cube.022
v 0.324017 6.701775 -1.741043
v 0.324017 6.609752 5.820696
v 0.324017 7.023205 -1.737132
v 0.324017 6.931182 5.824608
v -0.164841 6.701775 -1.741043
v -0.164841 6.609752 5.820696
v -0.164841 7.023205 -1.737132
v -0.164841 6.931182 5.824608
vt 0.625000 0.500000
vt 0.875000 0.500000
vt 0.875000 0.750000
vt 0.625000 0.750000
vt 0.375000 0.750000
vt 0.625000 1.000000
vt 0.375000 1.000000
vt 0.375000 0.000000
vt 0.625000 0.000000
vt 0.625000 0.250000
vt 0.375000 0.250000
vt 0.125000 0.500000
vt 0.375000 0.500000
vt 0.125000 0.750000
vn 0.0000 0.0122 -0.9999
vn 0.0000 0.9999 0.0122
vn -1.0000 0.0000 0.0000
vn 0.0000 -0.0122 0.9999
vn 1.0000 0.0000 0.0000
vn 0.0000 -0.9999 -0.0122
usemtl Material.014
s off
f 97/169/73 101/170/73 103/171/73 99/172/73
f 100/173/74 99/172/74 103/174/74 104/175/74
f 104/176/75 103/177/75 101/178/75 102/179/75
f 102/180/76 98/181/76 100/173/76 104/182/76
f 98/181/77 97/169/77 99/172/77 100/173/77
f 102/179/78 101/178/78 97/169/78 98/181/78
o Cube.013_Cube.023
v 0.324017 9.027886 -1.741043
v 0.324017 8.935863 5.820696
v 0.324017 9.349316 -1.737132
v 0.324017 9.257293 5.824608
v -0.164841 9.027886 -1.741043
v -0.164841 8.935863 5.820696
v -0.164841 9.349316 -1.737132
v -0.164841 9.257293 5.824608
vt 0.625000 0.500000
vt 0.875000 0.500000
vt 0.875000 0.750000
vt 0.625000 0.750000
vt 0.375000 0.750000
vt 0.625000 1.000000
vt 0.375000 1.000000
vt 0.375000 0.000000
vt 0.625000 0.000000
vt 0.625000 0.250000
vt 0.375000 0.250000
vt 0.125000 0.500000
vt 0.375000 0.500000
vt 0.125000 0.750000
vn 0.0000 0.0122 -0.9999
vn 0.0000 0.9999 0.0122
vn -1.0000 0.0000 0.0000
vn 0.0000 -0.0122 0.9999
vn 1.0000 0.0000 0.0000
vn 0.0000 -0.9999 -0.0122
usemtl Material.015
s off
f 105/183/79 109/184/79 111/185/79 107/186/79
f 108/187/80 107/186/80 111/188/80 112/189/80
f 112/190/81 111/191/81 109/192/81 110/193/81
f 110/194/82 106/195/82 108/187/82 112/196/82
f 106/195/83 105/183/83 107/186/83 108/187/83
f 110/193/84 109/192/84 105/183/84 106/195/84
o Cube.014_Cube.024
v 0.324017 9.187496 1.884723
v 0.324017 6.803979 1.898104
v 0.324017 9.189744 2.285195
v 0.324017 6.806227 2.298576
v -0.164841 9.187496 1.884723
v -0.164841 6.803979 1.898104
v -0.164841 9.189744 2.285195
v -0.164841 6.806227 2.298576
vt 0.625000 0.500000
vt 0.875000 0.500000
vt 0.875000 0.750000
vt 0.625000 0.750000
vt 0.375000 0.750000
vt 0.625000 1.000000
vt 0.375000 1.000000
vt 0.375000 0.000000
vt 0.625000 0.000000
vt 0.625000 0.250000
vt 0.375000 0.250000
vt 0.125000 0.500000
vt 0.375000 0.500000
vt 0.125000 0.750000
vn 0.0000 1.0000 -0.0056
vn 0.0000 0.0056 1.0000
vn -1.0000 0.0000 0.0000
vn 0.0000 -1.0000 0.0056
vn 1.0000 -0.0000 0.0000
vn 0.0000 -0.0056 -1.0000
usemtl Material.016
s off
f 113/197/85 117/198/85 119/199/85 115/200/85
f 116/201/86 115/200/86 119/202/86 120/203/86
f 120/204/87 119/205/87 117/206/87 118/207/87
f 118/208/88 114/209/88 116/201/88 120/210/88
f 114/209/89 113/197/89 115/200/89 116/201/89
f 118/207/90 117/206/90 113/197/90 114/209/90
o Cube.015_Cube.025
v 0.262360 9.018762 2.092245
v 0.262538 6.931774 2.078866
v 0.267366 8.995219 5.764690
v 0.267544 6.908232 5.751311
v -0.133238 9.018724 2.092784
v -0.133060 6.931737 2.079406
v -0.128232 8.995182 5.765229
v -0.128054 6.908195 5.751850
vt 0.625000 0.500000
vt 0.875000 0.500000
vt 0.875000 0.750000
vt 0.625000 0.750000
vt 0.375000 0.750000
vt 0.625000 1.000000
vt 0.375000 1.000000
vt 0.375000 0.000000
vt 0.625000 0.000000
vt 0.625000 0.250000
vt 0.375000 0.250000
vt 0.125000 0.500000
vt 0.375000 0.500000
vt 0.125000 0.750000
vn -0.0001 1.0000 0.0064
vn 0.0014 -0.0064 1.0000
vn -1.0000 -0.0001 0.0014
vn 0.0001 -1.0000 -0.0064
vn 1.0000 0.0001 -0.0014
vn -0.0014 0.0064 -1.0000
usemtl Material.017
s off
f 121/211/91 125/212/91 127/213/91 123/214/91
f 124/215/92 123/214/92 127/216/92 128/217/92
f 128/218/93 127/219/93 125/220/93 126/221/93
f 126/222/94 122/223/94 124/215/94 128/224/94
f 122/223/95 121/211/95 123/214/95 124/215/95
f 126/221/96 125/220/96 121/211/96 122/223/96
o Cube.016_Cube.027
v 0.262360 9.018762 -1.590605
v 0.262538 6.931774 -1.603984
v 0.267366 8.995219 2.081839
v 0.267544 6.908232 2.068460
v -0.133238 9.018724 -1.590066
v -0.133060 6.931737 -1.603445
v -0.128232 8.995182 2.082378
v -0.128054 6.908195 2.069000
vt 0.625000 0.500000
vt 0.875000 0.500000
vt 0.875000 0.750000
vt 0.625000 0.750000
vt 0.375000 0.750000
vt 0.625000 1.000000
vt 0.375000 1.000000
vt 0.375000 0.000000
vt 0.625000 0.000000
vt 0.625000 0.250000
vt 0.375000 0.250000
vt 0.125000 0.500000
vt 0.375000 0.500000
vt 0.125000 0.750000
vn -0.0001 1.0000 0.0064
vn 0.0014 -0.0064 1.0000
vn -1.0000 -0.0001 0.0014
vn 0.0001 -1.0000 -0.0064
vn 1.0000 0.0001 -0.0014
vn -0.0014 0.0064 -1.0000
usemtl Material.019
s off
f 129/225/97 133/226/97 135/227/97 131/228/97
f 132/229/98 131/228/98 135/230/98 136/231/98
f 136/232/99 135/233/99 133/234/99 134/235/99
f 134/236/100 130/237/100 132/229/100 136/238/100
f 130/237/101 129/225/101 131/228/101 132/229/101
f 134/235/102 133/234/102 129/225/102 130/237/102
