# Alias OBJ Model File
# Exported from SketchUp, (c) 2000-2012 Trimble Navigation Limited
# File units = inches

mtllib lampu.mtl

g Mesh1 Group1 Group_63_1 Model

usemtl _Translucent_Glass_Gray_1
v 11.9665 2.75591 -6.50763
vt 0.19685 0.393701
vn 0 0 1
v 11.9156 2.7492 -6.50763
vt 0.145902 0.386993
v 11.8681 2.72953 -6.50763
vt 0.0984252 0.367328
v 11.8273 2.69825 -6.50763
vt 0.0576561 0.336045
v 11.796 2.65748 -6.50763
vt 0.026373 0.295276
v 11.7764 2.61 -6.50763
vt 0.00670751 0.247799
v 11.7697 2.55906 -6.50763
vt 0 0.19685
v 11.7764 2.50811 -6.50763
vt 0.00670751 0.145902
v 11.796 2.46063 -6.50763
vt 0.026373 0.0984252
v 11.8273 2.41986 -6.50763
vt 0.0576561 0.0576561
v 11.8681 2.38858 -6.50763
vt 0.0984252 0.026373
v 11.9156 2.36891 -6.50763
vt 0.145902 0.00670751
v 11.9665 2.3622 -6.50763
vt 0.19685 0
v 12.0175 2.36891 -6.50763
vt 0.247799 0.00670751
v 12.0649 2.38858 -6.50763
vt 0.295276 0.026373
v 12.1057 2.41986 -6.50763
vt 0.336045 0.0576561
v 12.137 2.46063 -6.50763
vt 0.367328 0.0984252
v 12.1566 2.50811 -6.50763
vt 0.386993 0.145902
v 12.1634 2.55906 -6.50763
vt 0.393701 0.19685
v 12.1566 2.61 -6.50763
vt 0.386993 0.247799
v 12.137 2.65748 -6.50763
vt 0.367328 0.295276
v 12.1057 2.69825 -6.50763
vt 0.336045 0.336045
v 12.0649 2.72953 -6.50763
vt 0.295276 0.367328
v 12.0175 2.7492 -6.50763
vt 0.247799 0.386993
f 1/1/1 2/2/1 3/3/1 4/4/1 5/5/1 6/6/1 7/7/1 8/8/1 9/9/1 10/10/1 11/11/1 12/12/1 13/13/1 14/14/1 15/15/1 16/16/1 17/17/1 18/18/1 19/19/1 20/20/1 21/21/1 22/22/1 23/23/1 24/24/1 

vt 0 0.195166
vn -0.258819 0.965926 -0
vt 0 0.246555
vn 0 1 -0
v 11.9665 2.75591 -44.6966
vt -38.189 0.246555
v 11.9156 2.7492 -44.6966
vt -38.189 0.195166
f 2/25/2 1/26/3 25/27/3 26/28/2 

vt 0 -0.143778
vt 0 -0.195166
vn 0.258819 0.965926 -0
v 12.0175 2.7492 -44.6966
vt 38.189 -0.195166
vt 38.189 -0.143778
f 1/29/3 24/30/4 27/31/4 25/32/3 

vt 0 -0.0808405
vt 0 -0.132229
vn 0.5 0.866025 -0
v 12.0649 2.72953 -44.6966
vt 38.189 -0.132229
vt 38.189 -0.0808405
f 24/33/4 23/34/5 28/35/5 27/36/4 

vt 0 -0.0106429
vt 0 -0.0620311
vn 0.707107 0.707107 -0
v 12.1057 2.69825 -44.6966
vt 38.189 -0.0620311
vt 38.189 -0.0106429
f 23/37/5 22/38/6 29/39/6 28/40/5 

vt 0 0.0620311
vt 0 0.0106429
vn 0.866025 0.5 -0
v 12.137 2.65748 -44.6966
vt 38.189 0.0106429
vt 38.189 0.0620311
f 22/41/6 21/42/7 30/43/7 29/44/6 

vt 0 0.132229
vt 0 0.0808405
vn 0.965926 0.258819 -0
v 12.1566 2.61 -44.6966
vt 38.189 0.0808405
vt 38.189 0.132229
f 21/45/7 20/46/8 31/47/8 30/48/7 

vt 0 0.143778
vn 1 5.59902e-16 -0
v 12.1634 2.55906 -44.6966
vt 38.189 0.143778
vt 38.189 0.195166
f 20/25/8 19/49/9 32/50/9 31/51/8 

vn 0.965926 -0.258819 -0
v 12.1566 2.50811 -44.6966
vt 38.189 0.246555
f 19/26/9 18/25/10 33/51/10 32/52/9 

vt 0 0.282892
vt 0 0.231503
vn 0.866025 -0.5 -0
v 12.137 2.46063 -44.6966
vt 38.189 0.231503
vt 38.189 0.282892
f 18/53/10 17/54/11 34/55/11 33/56/10 

vt 0 0.301701
vt 0 0.250313
vn 0.707107 -0.707107 -0
v 12.1057 2.41986 -44.6966
vt 38.189 0.250313
vt 38.189 0.301701
f 17/57/11 16/58/12 35/59/12 34/60/11 

vn 0.5 -0.866025 -0
v 12.0649 2.38858 -44.6966
f 16/57/12 15/58/13 36/59/13 35/60/12 

vn 0.258819 -0.965926 -0
v 12.0175 2.36891 -44.6966
f 15/53/13 14/54/14 37/55/14 36/56/13 

vn -4.28325e-15 -1 -0
v 11.9665 2.3622 -44.6966
f 14/26/14 13/25/15 38/51/15 37/52/14 

vn -0.258819 -0.965926 -0
v 11.9156 2.36891 -44.6966
vt -38.189 -0.143778
vt -38.189 -0.195166
f 13/30/15 12/29/16 39/61/16 38/62/15 

vn -0.5 -0.866025 -0
v 11.8681 2.38858 -44.6966
vt -38.189 -0.0808405
vt -38.189 -0.132229
f 12/34/16 11/33/17 40/63/17 39/64/16 

vn -0.707107 -0.707107 -0
v 11.8273 2.41986 -44.6966
vt -38.189 -0.0106429
vt -38.189 -0.0620311
f 11/38/17 10/37/18 41/65/18 40/66/17 

vn -0.866025 -0.5 -0
v 11.796 2.46063 -44.6966
vt -38.189 0.0620311
vt -38.189 0.0106429
f 10/42/18 9/41/19 42/67/19 41/68/18 

vn -0.965926 -0.258819 -0
v 11.7764 2.50811 -44.6966
vt -38.189 0.132229
vt -38.189 0.0808405
f 9/46/19 8/45/20 43/69/20 42/70/19 

vn -1 0 -0
v 11.7697 2.55906 -44.6966
vt -38.189 0.143778
f 8/49/20 7/25/21 44/28/21 43/71/20 

vn -0.965926 0.258819 -0
v 11.7764 2.61 -44.6966
f 7/25/21 6/26/22 45/27/22 44/28/21 

vn -0.866025 0.5 -0
v 11.796 2.65748 -44.6966
vt -38.189 0.282892
vt -38.189 0.231503
f 6/54/22 5/53/23 46/72/23 45/73/22 

vn -0.707107 0.707107 -0
v 11.8273 2.69825 -44.6966
vt -38.189 0.301701
vt -38.189 0.250313
f 5/58/23 4/57/24 47/74/24 46/75/23 

vn -0.5 0.866025 -0
v 11.8681 2.72953 -44.6966
f 4/58/24 3/57/25 48/74/25 47/75/24 

f 3/54/25 2/53/2 26/72/2 48/73/25 

vt -0.145902 0.386993
vn 0 0 -1
vt -0.19685 0.393701
vt -0.247799 0.386993
vt -0.295276 0.367328
vt -0.336045 0.336045
vt -0.367328 0.295276
vt -0.386993 0.247799
vt -0.393701 0.19685
vt -0.386993 0.145902
vt -0.367328 0.0984252
vt -0.336045 0.0576561
vt -0.295276 0.026373
vt -0.247799 0.00670751
vt -0.19685 0
vt -0.145902 0.00670751
vt -0.0984252 0.026373
vt -0.0576561 0.0576561
vt -0.026373 0.0984252
vt -0.00670751 0.145902
vt -0.00670751 0.247799
vt -0.026373 0.295276
vt -0.0576561 0.336045
vt -0.0984252 0.367328
f 26/76/26 25/77/26 27/78/26 28/79/26 29/80/26 30/81/26 31/82/26 32/83/26 33/84/26 34/85/26 35/86/26 36/87/26 37/88/26 38/89/26 39/90/26 40/91/26 41/92/26 42/93/26 43/94/26 44/7/26 45/95/26 46/96/26 47/97/26 48/98/26 

g Mesh2 Group2 Group_63_1 Model

usemtl FrontColor
v 11.9156 2.36891 -44.6966
vn -0.258819 -0.965926 7.18097e-19
v 11.8681 2.38858 -44.6966
v 11.8681 2.38858 -45.0903
vt -0.393701 -0.0808405
v 11.9156 2.36891 -45.0903
vt -0.393701 -0.132229
f 49/34/27 50/33/17 51/99/17 52/100/27 

v 11.8273 2.41986 -44.6966
v 11.8273 2.41986 -45.0903
vt -0.393701 -0.0106429
vt -0.393701 -0.0620311
f 50/38/17 53/37/18 54/101/18 51/102/17 

v 11.796 2.46063 -44.6966
v 11.796 2.46063 -45.0903
vt -0.393701 0.0620311
vt -0.393701 0.0106429
f 53/42/18 55/41/19 56/103/19 54/104/18 

v 11.7764 2.50811 -44.6966
v 11.7764 2.50811 -45.0903
vt -0.393701 0.132229
vt -0.393701 0.0808405
f 55/46/19 57/45/20 58/105/20 56/106/19 

v 11.7697 2.55906 -44.6966
vn -1 5.59902e-16 -0
v 11.7697 2.55906 -45.0903
vt -0.393701 0.195166
vt -0.393701 0.143778
f 57/49/20 59/25/28 60/107/28 58/108/20 

v 11.7764 2.61 -44.6966
v 11.7764 2.61 -45.0903
vt -0.393701 0.246555
f 59/25/28 61/26/22 62/109/22 60/107/28 

v 11.796 2.65748 -44.6966
v 11.796 2.65748 -45.0903
vt -0.393701 0.282892
vt -0.393701 0.231503
f 61/54/22 63/53/23 64/110/23 62/111/22 

v 11.8273 2.69825 -44.6966
v 11.8273 2.69825 -45.0903
vt -0.393701 0.301701
vt -0.393701 0.250313
f 63/58/23 65/57/24 66/112/24 64/113/23 

v 11.8681 2.72953 -44.6966
v 11.8681 2.72953 -45.0903
f 65/58/24 67/57/25 68/112/25 66/113/24 

v 11.9156 2.7492 -44.6966
v 11.9156 2.7492 -45.0903
f 67/54/25 69/53/2 70/110/2 68/111/25 

v 11.9665 2.75591 -44.6966
vn 0 1 4.28896e-20
v 11.9665 2.75591 -45.0903
f 69/25/2 71/26/29 72/109/29 70/107/2 

vt 1.2826e-19 -0.143778
v 12.0175 2.7492 -44.6966
vt 1.61456e-19 -0.195166
vn 0.258819 0.965926 4.28896e-20
v 12.0175 2.7492 -45.0903
vt 0.393701 -0.195166
vt 0.393701 -0.143778
f 71/114/29 73/115/30 74/116/30 72/117/29 

v 12.0649 2.72953 -44.6966
v 12.0649 2.72953 -45.0903
vt 0.393701 -0.132229
vt 0.393701 -0.0808405
f 73/33/30 75/34/5 76/118/5 74/119/30 

v 12.1057 2.69825 -44.6966
v 12.1057 2.69825 -45.0903
vt 0.393701 -0.0620311
vt 0.393701 -0.0106429
f 75/37/5 77/38/6 78/120/6 76/121/5 

v 12.137 2.65748 -44.6966
v 12.137 2.65748 -45.0903
vt 0.393701 0.0106429
vt 0.393701 0.0620311
f 77/41/6 79/42/7 80/122/7 78/123/6 

v 12.1566 2.61 -44.6966
v 12.1566 2.61 -45.0903
vt 0.393701 0.0808405
vt 0.393701 0.132229
f 79/45/7 81/46/8 82/124/8 80/125/7 

v 12.1634 2.55906 -44.6966
vn 1 0 -0
v 12.1634 2.55906 -45.0903
vt 0.393701 0.143778
vt 0.393701 0.195166
f 81/25/8 83/49/31 84/126/31 82/127/8 

v 12.1566 2.50811 -44.6966
v 12.1566 2.50811 -45.0903
vt 0.393701 0.246555
f 83/26/31 85/25/10 86/127/10 84/128/31 

v 12.137 2.46063 -44.6966
v 12.137 2.46063 -45.0903
vt 0.393701 0.231503
vt 0.393701 0.282892
f 85/53/10 87/54/11 88/129/11 86/130/10 

v 12.1057 2.41986 -44.6966
v 12.1057 2.41986 -45.0903
vt 0.393701 0.250313
vt 0.393701 0.301701
f 87/57/11 89/58/12 90/131/12 88/132/11 

v 12.0649 2.38858 -44.6966
v 12.0649 2.38858 -45.0903
f 89/57/12 91/58/13 92/131/13 90/132/12 

v 12.0175 2.36891 -44.6966
vn 0.258819 -0.965926 -3.06852e-19
v 12.0175 2.36891 -45.0903
f 91/53/13 93/54/32 94/129/32 92/130/13 

vt -1.15513e-18 0.246555
v 11.9665 2.3622 -44.6966
vt -9.17628e-19 0.195166
vn 4.25525e-15 -1 4.11245e-19
v 11.9665 2.3622 -45.0903
f 93/133/32 95/134/33 96/127/33 94/128/32 

vt 2.14744e-18 -0.195166
vt 1.59164e-18 -0.143778
vt -0.393701 -0.143778
vt -0.393701 -0.195166
f 95/135/33 49/136/27 52/137/27 96/138/33 

vn 3.76418e-14 3.2085e-14 -1
vt -0.19685 -1.26319e-14
vt 1.48196e-14 0.19685
f 70/76/34 72/77/34 74/78/34 76/79/34 78/80/34 80/81/34 82/82/34 84/83/34 86/84/34 88/85/34 90/86/34 92/87/34 94/88/34 96/139/34 52/90/34 51/91/34 54/92/34 56/93/34 58/94/34 60/140/34 62/95/34 64/96/34 66/97/34 68/98/34 

g Mesh3 Group3 Group_63_1 Model

vn 0.258819 -0.965926 -6.15029e-20
v 12.0649 2.38858 -6.11393
vt 5.68434e-14 0.282892
v 12.0175 2.36891 -6.11393
vt 5.68434e-14 0.231503
f 14/129/35 15/130/13 97/141/13 98/142/35 

v 12.1057 2.41986 -6.11393
vt 5.68434e-14 0.301701
vt 5.68434e-14 0.250313
f 15/131/13 16/132/12 99/143/12 97/144/13 

v 12.137 2.46063 -6.11393
f 16/131/12 17/132/11 100/143/11 99/144/12 

v 12.1566 2.50811 -6.11393
f 17/129/11 18/130/10 101/141/10 100/142/11 

v 12.1634 2.55906 -6.11393
vt 5.68434e-14 0.246555
vt 5.68434e-14 0.195166
f 18/127/10 19/128/9 102/145/9 101/146/10 

v 12.1566 2.61 -6.11393
vt 5.68434e-14 0.143778
f 19/126/9 20/127/8 103/146/8 102/147/9 

v 12.137 2.65748 -6.11393
vt 5.68434e-14 0.132229
vt 5.68434e-14 0.0808405
f 20/124/8 21/125/7 104/148/7 103/149/8 

v 12.1057 2.69825 -6.11393
vt 5.68434e-14 0.0620311
vt 5.68434e-14 0.0106429
f 21/122/7 22/123/6 105/150/6 104/151/7 

v 12.0649 2.72953 -6.11393
vt 5.68434e-14 -0.0106429
vt 5.68434e-14 -0.0620311
f 22/120/6 23/121/5 106/152/5 105/153/6 

vn 0.258819 0.965926 -4.11245e-19
v 12.0175 2.7492 -6.11393
vt 5.68434e-14 -0.0808405
vt 5.68434e-14 -0.132229
f 23/118/5 24/119/36 107/154/36 106/155/5 

vn 1.39975e-17 1 -4.11245e-19
v 11.9665 2.75591 -6.11393
vt -1.22981e-18 -0.143778
vt 5.68419e-14 -0.195166
f 24/116/36 1/117/37 108/156/37 107/157/36 

v 11.9156 2.7492 -6.11393
f 1/109/37 2/107/2 109/25/2 108/26/37 

v 11.8681 2.72953 -6.11393
f 2/110/2 3/111/25 110/54/25 109/53/2 

v 11.8273 2.69825 -6.11393
f 3/112/25 4/113/24 111/58/24 110/57/25 

v 11.796 2.65748 -6.11393
f 4/112/24 5/113/23 112/58/23 111/57/24 

v 11.7764 2.61 -6.11393
f 5/110/23 6/111/22 113/54/22 112/53/23 

v 11.7697 2.55906 -6.11393
f 6/109/22 7/107/21 114/25/21 113/26/22 

v 11.7764 2.50811 -6.11393
f 7/107/21 8/108/20 115/49/20 114/25/21 

v 11.796 2.46063 -6.11393
f 8/105/20 9/106/19 116/46/19 115/45/20 

v 11.8273 2.41986 -6.11393
f 9/103/19 10/104/18 117/42/18 116/41/19 

v 11.8681 2.38858 -6.11393
f 10/101/18 11/102/17 118/38/17 117/37/18 

v 11.9156 2.36891 -6.11393
f 11/99/17 12/100/16 119/34/16 118/33/17 

vn -4.28325e-15 -1 -6.15029e-20
v 11.9665 2.3622 -6.11393
f 12/137/16 13/138/38 120/30/38 119/29/16 

vt 5.68432e-14 0.246555
vt -1.83922e-19 0.195166
f 13/127/38 14/128/35 98/158/35 120/159/38 

vn -7.52836e-14 -2.33197e-30 1
vt 0.19685 -3.45588e-44
f 119/12/39 120/160/39 98/14/39 97/15/39 99/16/39 100/17/39 101/18/39 102/19/39 103/20/39 104/21/39 105/22/39 106/23/39 107/24/39 108/1/39 109/2/39 110/3/39 111/4/39 112/5/39 113/6/39 114/7/39 115/8/39 116/9/39 117/10/39 118/11/39 

g Mesh4 Group_63_1 Model

v 9.998 0 -3.94857
vt 0 0
vn 0 -1 -0
v 9.998 0 -47.2557
vt 0 43.3071
v 13.935 0 -47.2557
vt -3.93701 43.3071
v 13.935 0 -3.94857
vt -3.93701 0
f 121/161/40 122/162/40 123/163/40 124/164/40 

vt -43.3071 0
v 9.998 1.9685 -3.94857
vt 0 1.9685
v 9.998 1.9685 -47.2557
vt -43.3071 1.9685
f 122/165/21 121/161/21 125/166/21 126/167/21 

vt 3.93701 0
v 13.935 1.9685 -3.94857
vt 3.93701 1.9685
f 121/161/1 124/168/1 127/169/1 125/166/1 

vt 43.3071 0
v 13.935 1.9685 -47.2557
vt 43.3071 1.9685
f 124/161/31 123/170/31 128/171/31 127/166/31 

vt -3.93701 1.9685
f 123/164/26 122/161/26 126/166/26 128/172/26 

v 10.1949 1.9685 -47.0588
vt 0.19685 43.1102
vt 3.93701 43.3071
f 126/162/3 129/173/3 128/174/3

v 10.1949 1.9685 -4.14543
vt 0.19685 0.19685
f 129/173/3 126/162/3 130/175/3

f 125/161/3 130/175/3 126/162/3

f 130/175/3 125/161/3 127/168/3

v 15.9035 3.93701 -1.98007
vt 5.90551 4.17583
vn 0 -0.707107 0.707107
v 8.0295 3.93701 -1.98007
vt -1.9685 4.17583
vt 0 1.39194
vt 3.93701 1.39194
f 131/176/41 132/177/41 125/178/41 127/179/41 

v 8.22635 3.93701 -2.17692
vt -1.77165 -1.77165
vt -1.9685 -1.9685
vt 5.90551 -1.9685
f 133/180/3 132/181/3 131/182/3

v 8.0295 3.93701 -49.2242
vt -1.9685 45.2756
f 132/181/3 133/180/3 134/183/3

v 8.22635 3.93701 -49.0273
vt -1.77165 45.0787
f 135/184/3 134/183/3 133/180/3

v 15.9035 3.93701 -49.2242
vt 5.90551 45.2756
f 134/183/3 135/184/3 136/185/3

v 15.7067 3.93701 -49.0273
vt 5.70866 45.0787
f 136/185/3 135/184/3 137/186/3

vt -1.77165 34.6594
vn 0 0.707107 0.707107
vt 0.19685 31.8755
v 13.7382 1.9685 -47.0588
vt 3.74016 31.8755
vt 5.70866 34.6594
f 135/187/42 129/188/42 138/189/42 137/190/42 

vt -1.77165 4.03663
vn 0.707107 0.707107 1.24471e-18
vt 0.19685 1.25275
vt 43.1102 1.25275
vt 45.0787 4.03663
f 133/191/43 130/192/43 129/193/43 135/194/43 

vt -0.19685 1.25275
vn 0 0.707107 -0.707107
vt 1.77165 4.03663
v 15.7067 3.93701 -2.17692
vt -5.70866 4.03663
v 13.7382 1.9685 -4.14543
vt -3.74016 1.25275
f 130/195/44 133/196/44 139/197/44 140/198/44 

vt 5.70866 -1.77165
f 133/180/3 131/182/3 139/199/3

f 139/199/3 131/182/3 137/186/3

f 136/185/3 137/186/3 131/182/3

vt 45.2756 6.95971
vn 0.707107 -0.707107 1.2232e-18
vt -1.9685 6.95971
vt 6.81049e-18 4.17583
vt 43.3071 4.17583
f 136/200/45 131/201/45 127/202/45 128/203/45 

vt 3.74016 43.1102
f 128/174/3 138/204/3 127/168/3

f 128/174/3 129/173/3 138/204/3

v 11.1791 1.9685 -45.2872
vt 1.1811 41.3386
f 129/173/3 141/205/3 138/204/3

v 11.1791 1.9685 -5.91708
vt 1.1811 1.9685
f 141/205/3 129/173/3 142/206/3

f 130/175/3 142/206/3 129/173/3

vt 3.74016 0.19685
f 142/206/3 130/175/3 140/207/3

f 130/175/3 127/168/3 140/207/3

f 140/207/3 127/168/3 138/204/3

vt -0.19685 4.03663
vn -0.707107 0.707107 1.24471e-18
vt 1.77165 6.82052
vt -45.0787 6.82052
vt -43.1102 4.03663
f 140/208/46 139/209/46 137/210/46 138/211/46 

v 12.7539 1.9685 -45.2872
vt 2.75591 41.3386
f 138/204/3 143/212/3 140/207/3

f 138/204/3 141/205/3 143/212/3

vt -2.75591 1.9685
vt -1.1811 1.9685
v 11.1791 2.3622 -45.2872
vt -1.1811 2.3622
v 12.7539 2.3622 -45.2872
vt -2.75591 2.3622
f 143/213/26 141/214/26 144/215/26 145/216/26 

vt -41.3386 1.9685
v 11.1791 1.9685 -44.4998
vt -40.5512 1.9685
v 11.1791 2.3622 -44.4998
vt -40.5512 2.3622
vt -41.3386 2.3622
f 141/217/21 146/218/21 147/219/21 144/220/21 

v 11.1791 1.9685 -6.70448
vt 1.1811 2.75591
vt 1.1811 40.5512
f 141/205/3 148/221/3 146/222/3

f 141/205/3 142/206/3 148/221/3

vt -1.9685 1.9685
v 11.1791 2.3622 -5.91708
vt -1.9685 2.3622
v 11.1791 2.3622 -6.70448
f 148/213/21 142/223/21 149/224/21 150/216/21 

v 12.7539 1.9685 -5.91708
vt 2.75591 1.9685
v 12.7539 2.3622 -5.91708
vt 2.75591 2.3622
vt 1.1811 2.3622
f 142/206/1 151/225/1 152/226/1 149/227/1 

f 142/206/3 140/207/3 151/225/3

v 12.7539 1.9685 -6.70448
vt 2.75591 2.75591
f 151/225/3 140/207/3 153/228/3

v 12.7539 1.9685 -44.4998
vt 2.75591 40.5512
f 153/228/3 140/207/3 154/229/3

f 154/229/3 140/207/3 143/212/3

vt 40.5512 1.9685
vt 41.3386 1.9685
vt 41.3386 2.3622
v 12.7539 2.3622 -44.4998
vt 40.5512 2.3622
f 154/230/31 143/231/31 145/232/31 155/233/31 

f 145/212/3 144/205/3 147/222/3 155/229/3 

f 146/206/1 154/225/1 155/226/1 147/227/1 

f 146/222/3 153/228/3 154/229/3

f 153/228/3 146/222/3 148/221/3

v 12.7539 2.3622 -6.70448
f 153/213/26 148/214/26 150/215/26 156/216/26 

f 156/228/3 150/221/3 149/206/3 152/225/3 

vt 1.9685 1.9685
vt 1.9685 2.3622
f 151/234/31 153/225/31 156/226/31 152/235/31 

vt -5.90551 34.7986
vn 0 -0.707107 -0.707107
vt -3.93701 32.0147
vt 0 32.0147
vt 1.9685 34.7986
f 136/236/47 128/237/47 126/238/47 134/239/47 

vt 1.9685 4.17583
vn -0.707107 -0.707107 1.2232e-18
vt -45.2756 4.17583
vt -43.3071 1.39194
vt 1.92593e-34 1.39194
f 132/240/48 134/241/48 126/242/48 125/243/48 

g Mesh5 Group_63_1 Model

vt 1.77836 2.61
vt 1.77165 2.55906
vt 1.77836 2.50811
vt 1.79803 2.46063
vt 1.82931 2.41986
vt 1.87008 2.38858
vt 1.91756 2.36891
vt 2.01945 2.36891
vt 2.06693 2.38858
vt 2.1077 2.41986
vt 2.13898 2.46063
vt 2.15865 2.50811
vt 2.16535 2.55906
vt 2.15865 2.61
vt 2.13898 2.65748
vt 2.1077 2.69825
vt 2.06693 2.72953
vt 2.01945 2.7492
vt 1.9685 2.75591
vt 1.91756 2.7492
vt 1.87008 2.72953
vt 1.82931 2.69825
vt 1.79803 2.65748
f 61/244/1 59/245/1 57/246/1 55/247/1 53/248/1 50/249/1 49/250/1 95/235/1 93/251/1 91/252/1 89/253/1 87/254/1 85/255/1 83/256/1 81/257/1 79/258/1 77/259/1 75/260/1 73/261/1 71/262/1 69/263/1 67/264/1 65/265/1 63/266/1 

