# Blender v2.92.0 OBJ File: 'cendela.blend'
# www.blender.org
mtllib cendela.mtl
o Cube.010_Cube.020
v 0.324017 9.245702 5.619561
v 0.324017 -0.011804 5.619561
v 0.324017 9.245702 5.941023
v 0.324017 -0.011804 5.941023
v -0.164841 9.245702 5.619561
v -0.164841 -0.011804 5.619561
v -0.164841 9.245702 5.941023
v -0.164841 -0.011804 5.941023
vt 0.625000 0.500000
vt 0.875000 0.500000
vt 0.875000 0.750000
vt 0.625000 0.750000
vt 0.375000 0.750000
vt 0.625000 1.000000
vt 0.375000 1.000000
vt 0.375000 0.000000
vt 0.625000 0.000000
vt 0.625000 0.250000
vt 0.375000 0.250000
vt 0.125000 0.500000
vt 0.375000 0.500000
vt 0.125000 0.750000
vn 0.0000 1.0000 0.0000
vn 0.0000 0.0000 1.0000
vn -1.0000 0.0000 0.0000
vn 0.0000 -1.0000 0.0000
vn 1.0000 0.0000 0.0000
vn 0.0000 0.0000 -1.0000
usemtl Material.012
s off
f 1/1/1 5/2/1 7/3/1 3/4/1
f 4/5/2 3/4/2 7/6/2 8/7/2
f 8/8/3 7/9/3 5/10/3 6/11/3
f 6/12/4 2/13/4 4/5/4 8/14/4
f 2/13/5 1/1/5 3/4/5 4/5/5
f 6/11/6 5/10/6 1/1/6 2/13/6
o Cube.011_Cube.021
v 0.324017 9.344084 -1.767626
v 0.324017 0.086578 -1.767626
v 0.324017 9.344084 -1.446164
v 0.324017 0.086578 -1.446164
v -0.164841 9.344084 -1.767626
v -0.164841 0.086578 -1.767626
v -0.164841 9.344084 -1.446164
v -0.164841 0.086578 -1.446164
vt 0.625000 0.500000
vt 0.875000 0.500000
vt 0.875000 0.750000
vt 0.625000 0.750000
vt 0.375000 0.750000
vt 0.625000 1.000000
vt 0.375000 1.000000
vt 0.375000 0.000000
vt 0.625000 0.000000
vt 0.625000 0.250000
vt 0.375000 0.250000
vt 0.125000 0.500000
vt 0.375000 0.500000
vt 0.125000 0.750000
vn 0.0000 1.0000 0.0000
vn 0.0000 0.0000 1.0000
vn -1.0000 0.0000 0.0000
vn 0.0000 -1.0000 0.0000
vn 1.0000 0.0000 0.0000
vn 0.0000 0.0000 -1.0000
usemtl Material.013
s off
f 9/15/7 13/16/7 15/17/7 11/18/7
f 12/19/8 11/18/8 15/20/8 16/21/8
f 16/22/9 15/23/9 13/24/9 14/25/9
f 14/26/10 10/27/10 12/19/10 16/28/10
f 10/27/11 9/15/11 11/18/11 12/19/11
f 14/25/12 13/24/12 9/15/12 10/27/12
o Cube.012_Cube.022
v 0.324017 6.701775 -1.741043
v 0.324017 6.609752 5.820696
v 0.324017 7.023205 -1.737132
v 0.324017 6.931182 5.824608
v -0.164841 6.701775 -1.741043
v -0.164841 6.609752 5.820696
v -0.164841 7.023205 -1.737132
v -0.164841 6.931182 5.824608
vt 0.625000 0.500000
vt 0.875000 0.500000
vt 0.875000 0.750000
vt 0.625000 0.750000
vt 0.375000 0.750000
vt 0.625000 1.000000
vt 0.375000 1.000000
vt 0.375000 0.000000
vt 0.625000 0.000000
vt 0.625000 0.250000
vt 0.375000 0.250000
vt 0.125000 0.500000
vt 0.375000 0.500000
vt 0.125000 0.750000
vn 0.0000 0.0122 -0.9999
vn 0.0000 0.9999 0.0122
vn -1.0000 0.0000 0.0000
vn 0.0000 -0.0122 0.9999
vn 1.0000 0.0000 0.0000
vn 0.0000 -0.9999 -0.0122
usemtl Material.014
s off
f 17/29/13 21/30/13 23/31/13 19/32/13
f 20/33/14 19/32/14 23/34/14 24/35/14
f 24/36/15 23/37/15 21/38/15 22/39/15
f 22/40/16 18/41/16 20/33/16 24/42/16
f 18/41/17 17/29/17 19/32/17 20/33/17
f 22/39/18 21/38/18 17/29/18 18/41/18
o Cube.013_Cube.023
v 0.324017 9.027886 -1.741043
v 0.324017 8.935863 5.820696
v 0.324017 9.349316 -1.737132
v 0.324017 9.257293 5.824608
v -0.164841 9.027886 -1.741043
v -0.164841 8.935863 5.820696
v -0.164841 9.349316 -1.737132
v -0.164841 9.257293 5.824608
vt 0.625000 0.500000
vt 0.875000 0.500000
vt 0.875000 0.750000
vt 0.625000 0.750000
vt 0.375000 0.750000
vt 0.625000 1.000000
vt 0.375000 1.000000
vt 0.375000 0.000000
vt 0.625000 0.000000
vt 0.625000 0.250000
vt 0.375000 0.250000
vt 0.125000 0.500000
vt 0.375000 0.500000
vt 0.125000 0.750000
vn 0.0000 0.0122 -0.9999
vn 0.0000 0.9999 0.0122
vn -1.0000 0.0000 0.0000
vn 0.0000 -0.0122 0.9999
vn 1.0000 0.0000 0.0000
vn 0.0000 -0.9999 -0.0122
usemtl Material.015
s off
f 25/43/19 29/44/19 31/45/19 27/46/19
f 28/47/20 27/46/20 31/48/20 32/49/20
f 32/50/21 31/51/21 29/52/21 30/53/21
f 30/54/22 26/55/22 28/47/22 32/56/22
f 26/55/23 25/43/23 27/46/23 28/47/23
f 30/53/24 29/52/24 25/43/24 26/55/24
o Cube.014_Cube.024
v 0.324017 9.071697 1.866792
v 0.324017 0.309536 1.915983
v 0.324017 9.073946 2.267316
v 0.324017 0.311784 2.316507
v -0.164841 9.071697 1.866792
v -0.164841 0.309536 1.915983
v -0.164841 9.073946 2.267316
v -0.164841 0.311784 2.316507
vt 0.625000 0.500000
vt 0.875000 0.500000
vt 0.875000 0.750000
vt 0.625000 0.750000
vt 0.375000 0.750000
vt 0.625000 1.000000
vt 0.375000 1.000000
vt 0.375000 0.000000
vt 0.625000 0.000000
vt 0.625000 0.250000
vt 0.375000 0.250000
vt 0.125000 0.500000
vt 0.375000 0.500000
vt 0.125000 0.750000
vn 0.0000 1.0000 -0.0056
vn 0.0000 0.0056 1.0000
vn -1.0000 -0.0000 0.0000
vn 0.0000 -1.0000 0.0056
vn 1.0000 0.0000 0.0000
vn 0.0000 -0.0056 -1.0000
usemtl Material.016
s off
f 33/57/25 37/58/25 39/59/25 35/60/25
f 36/61/26 35/60/26 39/62/26 40/63/26
f 40/64/27 39/65/27 37/66/27 38/67/27
f 38/68/28 34/69/28 36/61/28 40/70/28
f 34/69/29 33/57/29 35/60/29 36/61/29
f 38/67/30 37/66/30 33/57/30 34/69/30
o Cube.015_Cube.025
v 0.262360 9.018762 2.092245
v 0.262538 6.931774 2.078866
v 0.267366 8.995219 5.764690
v 0.267544 6.908232 5.751311
v -0.133238 9.018724 2.092784
v -0.133060 6.931737 2.079406
v -0.128232 8.995182 5.765229
v -0.128054 6.908195 5.751850
vt 0.625000 0.500000
vt 0.875000 0.500000
vt 0.875000 0.750000
vt 0.625000 0.750000
vt 0.375000 0.750000
vt 0.625000 1.000000
vt 0.375000 1.000000
vt 0.375000 0.000000
vt 0.625000 0.000000
vt 0.625000 0.250000
vt 0.375000 0.250000
vt 0.125000 0.500000
vt 0.375000 0.500000
vt 0.125000 0.750000
vn -0.0001 1.0000 0.0064
vn 0.0014 -0.0064 1.0000
vn -1.0000 -0.0001 0.0014
vn 0.0001 -1.0000 -0.0064
vn 1.0000 0.0001 -0.0014
vn -0.0014 0.0064 -1.0000
usemtl Material.017
s off
f 41/71/31 45/72/31 47/73/31 43/74/31
f 44/75/32 43/74/32 47/76/32 48/77/32
f 48/78/33 47/79/33 45/80/33 46/81/33
f 46/82/34 42/83/34 44/75/34 48/84/34
f 42/83/35 41/71/35 43/74/35 44/75/35
f 46/81/36 45/80/36 41/71/36 42/83/36
o Cube.016_Cube.027
v 0.262360 9.018762 -1.590605
v 0.262538 6.931774 -1.603984
v 0.267366 8.995219 2.081839
v 0.267544 6.908232 2.068460
v -0.133238 9.018724 -1.590066
v -0.133060 6.931737 -1.603445
v -0.128232 8.995182 2.082378
v -0.128054 6.908195 2.069000
vt 0.625000 0.500000
vt 0.875000 0.500000
vt 0.875000 0.750000
vt 0.625000 0.750000
vt 0.375000 0.750000
vt 0.625000 1.000000
vt 0.375000 1.000000
vt 0.375000 0.000000
vt 0.625000 0.000000
vt 0.625000 0.250000
vt 0.375000 0.250000
vt 0.125000 0.500000
vt 0.375000 0.500000
vt 0.125000 0.750000
vn -0.0001 1.0000 0.0064
vn 0.0014 -0.0064 1.0000
vn -1.0000 -0.0001 0.0014
vn 0.0001 -1.0000 -0.0064
vn 1.0000 0.0001 -0.0014
vn -0.0014 0.0064 -1.0000
usemtl Material.019
s off
f 49/85/37 53/86/37 55/87/37 51/88/37
f 52/89/38 51/88/38 55/90/38 56/91/38
f 56/92/39 55/93/39 53/94/39 54/95/39
f 54/96/40 50/97/40 52/89/40 56/98/40
f 50/97/41 49/85/41 51/88/41 52/89/41
f 54/95/42 53/94/42 49/85/42 50/97/42
o Cube.001_Cube.011
v 0.324017 0.109975 -1.741043
v 0.324017 0.017952 5.820696
v 0.324017 0.431405 -1.737132
v 0.324017 0.339382 5.824608
v -0.164841 0.109975 -1.741043
v -0.164841 0.017952 5.820696
v -0.164841 0.431405 -1.737132
v -0.164841 0.339382 5.824608
vt 0.625000 0.500000
vt 0.875000 0.500000
vt 0.875000 0.750000
vt 0.625000 0.750000
vt 0.375000 0.750000
vt 0.625000 1.000000
vt 0.375000 1.000000
vt 0.375000 0.000000
vt 0.625000 0.000000
vt 0.625000 0.250000
vt 0.375000 0.250000
vt 0.125000 0.500000
vt 0.375000 0.500000
vt 0.125000 0.750000
vn 0.0000 0.0122 -0.9999
vn 0.0000 0.9999 0.0122
vn -1.0000 0.0000 0.0000
vn 0.0000 -0.0122 0.9999
vn 1.0000 0.0000 0.0000
vn 0.0000 -0.9999 -0.0122
usemtl Material.007
s off
f 57/99/43 61/100/43 63/101/43 59/102/43
f 60/103/44 59/102/44 63/104/44 64/105/44
f 64/106/45 63/107/45 61/108/45 62/109/45
f 62/110/46 58/111/46 60/103/46 64/112/46
f 58/111/47 57/99/47 59/102/47 60/103/47
f 62/109/48 61/108/48 57/99/48 58/111/48
o Cube.002_Cube.012
v 0.269755 6.764346 2.240198
v 0.269755 0.277099 2.240198
v 0.269755 6.764346 5.808933
v 0.269755 0.277099 5.808933
v -0.110579 6.764346 2.240198
v -0.110579 0.277099 2.240198
v -0.110579 6.764346 5.808933
v -0.110579 0.277099 5.808933
vt 0.625000 0.500000
vt 0.875000 0.500000
vt 0.875000 0.750000
vt 0.625000 0.750000
vt 0.375000 0.750000
vt 0.625000 1.000000
vt 0.375000 1.000000
vt 0.375000 0.000000
vt 0.625000 0.000000
vt 0.625000 0.250000
vt 0.375000 0.250000
vt 0.125000 0.500000
vt 0.375000 0.500000
vt 0.125000 0.750000
vn 0.0000 1.0000 0.0000
vn 0.0000 0.0000 1.0000
vn -1.0000 0.0000 0.0000
vn 0.0000 -1.0000 0.0000
vn 1.0000 0.0000 0.0000
vn 0.0000 0.0000 -1.0000
usemtl Material.019
s off
f 65/113/49 69/114/49 71/115/49 67/116/49
f 68/117/50 67/116/50 71/118/50 72/119/50
f 72/120/51 71/121/51 69/122/51 70/123/51
f 70/124/52 66/125/52 68/117/52 72/126/52
f 66/125/53 65/113/53 67/116/53 68/117/53
f 70/123/54 69/122/54 65/113/54 66/125/54
o Cube.003_Cube.013
v 0.269755 6.764346 -1.533399
v 0.269755 0.277099 -1.533399
v 0.269755 6.764346 2.035336
v 0.269755 0.277099 2.035336
v -0.110579 6.764346 -1.533399
v -0.110579 0.277099 -1.533399
v -0.110579 6.764346 2.035336
v -0.110579 0.277099 2.035336
vt 0.625000 0.500000
vt 0.875000 0.500000
vt 0.875000 0.750000
vt 0.625000 0.750000
vt 0.375000 0.750000
vt 0.625000 1.000000
vt 0.375000 1.000000
vt 0.375000 0.000000
vt 0.625000 0.000000
vt 0.625000 0.250000
vt 0.375000 0.250000
vt 0.125000 0.500000
vt 0.375000 0.500000
vt 0.125000 0.750000
vn 0.0000 1.0000 0.0000
vn 0.0000 0.0000 1.0000
vn -1.0000 0.0000 0.0000
vn 0.0000 -1.0000 0.0000
vn 1.0000 0.0000 0.0000
vn 0.0000 0.0000 -1.0000
usemtl Material.019
s off
f 73/127/55 77/128/55 79/129/55 75/130/55
f 76/131/56 75/130/56 79/132/56 80/133/56
f 80/134/57 79/135/57 77/136/57 78/137/57
f 78/138/58 74/139/58 76/131/58 80/140/58
f 74/139/59 73/127/59 75/130/59 76/131/59
f 78/137/60 77/136/60 73/127/60 74/139/60
